<?xml version="1.0" standalone="no"?>
<!DOCTYPE svg PUBLIC "-//W3C//DTD SVG 20010904//EN"
 "http://www.w3.org/TR/2001/REC-SVG-20010904/DTD/svg10.dtd">
<svg version="1.0" xmlns="http://www.w3.org/2000/svg"
 width="1294.000000pt" height="2000.000000pt" viewBox="0 0 1294.000000 2000.000000"
 preserveAspectRatio="xMidYMid meet">

<g transform="translate(0.000000,2000.000000) scale(0.100000,-0.100000)"
fill="#000000" stroke="none">
<path d="M0 19920 c0 -44 1 -80 3 -80 1 0 73 36 160 80 l159 80 -161 0 -161 0
0 -80z"/>
<path d="M735 19919 c30 -45 55 -85 55 -88 -1 -3 -72 -41 -158 -83 -167 -81
-398 -228 -542 -345 l-85 -68 -3 -113 c-1 -61 0 -112 4 -112 3 0 40 31 82 69
100 90 275 220 401 298 112 70 330 183 353 183 29 0 52 -147 53 -330 l0 -165
-100 -53 c-249 -133 -473 -312 -686 -547 l-109 -120 0 -140 0 -140 27 39 28
38 74 -84 c144 -161 292 -290 429 -373 34 -21 61 -40 59 -42 -10 -9 -212 -33
-282 -33 -71 0 -87 4 -144 32 -34 18 -92 57 -127 86 l-64 52 0 -149 0 -150 57
-13 c39 -9 131 -13 278 -13 210 0 225 1 330 29 116 30 303 99 345 127 14 9 65
42 114 74 109 71 276 230 362 345 73 97 171 288 209 405 52 163 60 225 60 450
0 196 -2 217 -28 319 -60 239 -160 433 -315 612 l-68 79 -147 3 c-81 1 -147 0
-147 -4 0 -3 24 -45 54 -93 120 -195 214 -415 256 -605 28 -128 29 -373 2
-422 -7 -12 -27 0 -98 56 -49 40 -114 95 -144 124 l-55 53 -1 199 c0 265 -32
414 -128 604 l-43 85 -106 3 -107 3 55 -82z m796 -535 c45 -133 63 -243 63
-399 1 -218 -12 -263 -67 -222 -17 12 -17 16 0 77 14 51 18 102 18 240 0 156
-3 187 -27 280 -15 58 -29 114 -33 125 -6 19 -6 19 6 1 6 -10 24 -56 40 -102z
m-523 -455 c146 -137 334 -271 448 -319 35 -15 67 -29 70 -32 13 -14 -78 -207
-144 -306 -7 -11 -21 -9 -73 8 -136 46 -319 149 -483 272 -66 50 -256 208
-256 213 0 1 36 28 81 60 77 56 265 165 283 165 5 0 38 -28 74 -61z m-540
-300 c15 -11 43 -36 63 -54 174 -160 455 -344 653 -426 l79 -33 -61 -57 c-71
-67 -147 -125 -229 -174 -44 -27 -69 -35 -104 -35 -122 0 -303 109 -496 297
-91 90 -203 217 -203 233 0 11 253 270 263 270 5 0 21 -9 35 -21z"/>
<path d="M12253 19971 c-374 -206 -636 -561 -724 -984 -31 -146 -31 -409 0
-554 93 -440 374 -809 766 -1002 189 -93 352 -138 538 -148 l107 -6 0 1362 0
1361 -317 0 -318 0 -52 -29z m597 -586 l0 -585 -159 0 -160 0 -6 48 c-32 242
-90 407 -197 565 -42 62 -152 178 -207 218 l-34 25 87 66 c100 75 228 145 336
182 90 32 238 64 298 65 l42 1 0 -585z m-831 111 c181 -133 305 -368 336 -638
l6 -58 -345 0 -346 0 6 43 c35 265 107 437 279 673 13 18 10 19 64 -20z m337
-963 c-11 -167 -61 -338 -136 -463 -47 -79 -127 -171 -176 -201 l-36 -22 -34
39 c-100 115 -194 284 -243 436 -26 82 -61 251 -61 296 0 9 76 12 347 12 l346
0 -7 -97z m494 -494 l0 -592 -65 7 c-195 20 -421 108 -589 231 l-55 40 66 65
c116 114 189 228 246 385 33 94 64 241 72 345 4 47 8 91 10 98 3 9 44 12 160
12 l155 0 0 -591z"/>
<path d="M2350 18665 c0 -8 5 -15 10 -15 6 0 10 -28 10 -64 0 -36 -4 -68 -10
-71 -21 -13 -9 -25 25 -25 34 0 46 12 25 25 -5 3 -10 19 -10 36 0 28 1 29 49
29 45 0 49 -2 56 -27 4 -19 2 -29 -10 -35 -22 -13 -9 -28 25 -28 32 0 50 17
27 26 -21 8 -23 132 -2 140 28 11 15 24 -25 24 -40 0 -52 -12 -27 -27 6 -4 12
-18 13 -30 1 -21 -4 -23 -53 -23 -50 0 -53 2 -53 24 0 14 5 28 10 31 21 13 9
25 -25 25 -24 0 -35 -5 -35 -15z"/>
<path d="M2650 18671 c0 -6 5 -13 10 -16 6 -3 10 -35 10 -70 0 -35 -4 -67 -10
-70 -26 -16 -4 -25 60 -25 67 0 71 1 81 27 6 17 6 30 0 36 -7 7 -14 1 -20 -16
-9 -22 -17 -27 -46 -27 -34 0 -35 1 -35 40 0 38 1 40 25 34 19 -5 25 -2 25 11
0 13 -6 16 -25 11 -23 -6 -25 -3 -25 24 0 27 3 30 34 30 25 0 35 -5 39 -20 3
-11 11 -20 17 -20 7 0 10 7 6 16 -3 9 -6 22 -6 30 0 11 -16 14 -70 14 -38 0
-70 -4 -70 -9z"/>
<path d="M2944 18663 c7 -18 -41 -153 -55 -153 -5 0 -9 -4 -9 -10 0 -5 16 -10
35 -10 32 0 48 14 25 22 -5 2 -7 13 -4 26 5 17 14 22 39 22 36 0 51 -22 39
-54 -5 -13 1 -16 30 -16 36 0 48 13 22 23 -7 3 -26 42 -42 86 -27 76 -30 81
-57 81 -23 0 -28 -4 -23 -17z m51 -60 c5 -20 3 -23 -19 -23 -24 0 -24 2 -14
31 11 32 21 29 33 -8z"/>
<path d="M3160 18671 c0 -6 5 -13 10 -16 6 -3 10 -35 10 -70 0 -35 -4 -67 -10
-70 -25 -16 -5 -25 56 -25 59 0 68 3 95 29 21 22 29 39 29 66 0 27 -8 44 -29
66 -27 26 -36 29 -95 29 -36 0 -66 -4 -66 -9z m131 -30 c16 -13 23 -29 23 -54
0 -47 -27 -77 -71 -77 l-33 0 0 75 0 75 29 0 c16 0 39 -8 52 -19z"/>
<path d="M3430 18671 c0 -5 6 -11 13 -14 8 -3 24 -42 37 -86 30 -104 51 -109
76 -21 9 33 20 60 24 60 4 0 14 -27 23 -60 13 -46 21 -60 36 -60 15 0 22 14
36 73 10 39 27 82 38 95 l20 22 -34 0 c-33 0 -34 -1 -35 -43 -1 -23 -7 -55
-14 -72 l-12 -30 -22 70 c-13 42 -27 70 -36 70 -8 0 -21 -28 -34 -75 l-20 -75
-19 65 c-14 45 -17 65 -8 68 6 2 9 8 5 13 -7 12 -74 12 -74 0z"/>
<path d="M3864 18663 c7 -18 -41 -153 -55 -153 -5 0 -9 -4 -9 -10 0 -5 16 -10
35 -10 33 0 48 14 24 22 -7 2 -9 13 -5 26 6 17 15 22 41 22 36 0 51 -22 39
-54 -5 -13 1 -16 30 -16 35 0 49 13 23 23 -6 2 -26 41 -42 86 -28 75 -32 81
-59 81 -22 0 -27 -4 -22 -17z m51 -60 c5 -20 3 -23 -19 -23 -24 0 -24 2 -14
31 11 32 21 29 33 -8z"/>
<path d="M4070 18670 c0 -5 5 -10 10 -10 6 0 24 -21 40 -47 30 -47 38 -87 20
-98 -21 -13 -9 -25 25 -25 34 0 46 12 25 25 -27 16 17 127 55 142 27 10 15 23
-21 23 -29 0 -35 -3 -30 -16 5 -14 -18 -74 -29 -74 -11 0 -34 60 -29 74 5 13
-1 16 -30 16 -20 0 -36 -4 -36 -10z"/>
<path d="M4503 18656 c-23 -20 -28 -32 -28 -71 0 -39 5 -51 28 -71 39 -34 127
-32 127 2 0 10 -6 11 -26 4 -75 -29 -133 50 -83 114 24 31 49 33 74 6 25 -27
35 -25 35 8 0 26 -3 28 -49 30 -40 2 -55 -3 -78 -22z"/>
<path d="M4720 18670 c0 -5 5 -10 10 -10 6 0 10 -30 10 -69 0 -39 -4 -73 -10
-76 -21 -13 -9 -25 25 -25 24 0 35 5 35 15 0 8 -4 15 -10 15 -5 0 -10 14 -10
30 0 30 1 30 55 30 54 0 55 0 55 -29 0 -17 -4 -33 -10 -36 -21 -13 -9 -25 25
-25 34 0 46 12 25 25 -5 3 -10 35 -10 70 0 35 5 67 10 70 21 13 9 25 -25 25
-24 0 -35 -5 -35 -15 0 -8 5 -15 10 -15 6 0 10 -11 10 -25 0 -24 -3 -25 -55
-25 -52 0 -55 1 -55 25 0 14 5 25 10 25 6 0 10 7 10 15 0 10 -11 15 -35 15
-19 0 -35 -4 -35 -10z"/>
<path d="M5020 18665 c0 -8 5 -15 10 -15 6 0 10 -28 10 -64 0 -36 -4 -68 -10
-71 -21 -13 -9 -25 25 -25 34 0 46 12 25 25 -13 8 -13 65 -1 65 25 0 44 -16
62 -51 13 -26 26 -39 39 -39 11 0 20 5 20 10 0 6 -5 10 -11 10 -5 0 -15 14
-20 30 -6 17 -15 30 -20 30 -4 0 3 11 16 25 30 29 31 39 5 65 -26 26 -150 30
-150 5z m130 -20 c19 -22 -5 -45 -46 -45 -31 0 -34 3 -34 30 0 27 3 30 34 30
18 0 39 -7 46 -15z"/>
<path d="M5290 18670 c0 -6 7 -13 15 -16 20 -8 19 -119 -1 -135 -19 -16 -8
-29 26 -29 33 0 49 17 26 26 -12 5 -16 21 -16 69 0 48 4 64 16 69 8 3 12 10 9
16 -8 13 -75 13 -75 0z"/>
<path d="M5473 18668 c-33 -42 -18 -71 47 -93 43 -14 51 -21 48 -38 -4 -30
-48 -35 -73 -7 -25 28 -37 25 -33 -7 3 -27 5 -28 63 -28 54 0 60 2 74 27 15
26 14 29 -4 47 -11 11 -38 27 -60 34 -28 10 -40 20 -40 33 0 28 42 30 70 4 25
-23 41 -14 30 19 -4 14 -17 18 -59 20 -33 1 -57 -3 -63 -11z"/>
<path d="M5690 18650 c0 -34 15 -41 23 -10 6 25 34 26 41 3 8 -29 -1 -114 -13
-126 -20 -20 -12 -27 29 -27 40 0 54 15 25 26 -11 5 -15 23 -15 75 0 63 2 69
21 69 12 0 23 -8 26 -20 8 -30 25 -24 21 8 -3 27 -4 27 -80 30 l-78 3 0 -31z"/>
<path d="M5940 18671 c0 -6 5 -13 10 -16 6 -3 10 -35 10 -71 0 -36 -4 -64 -10
-64 -5 0 -10 -7 -10 -15 0 -10 11 -15 35 -15 34 0 46 12 25 25 -5 3 -10 35
-10 70 0 35 5 67 10 70 21 13 9 25 -25 25 -19 0 -35 -4 -35 -9z"/>
<path d="M6154 18665 c6 -18 -42 -155 -55 -155 -5 0 -9 -4 -9 -10 0 -5 16 -10
35 -10 33 0 46 12 26 24 -5 3 -7 15 -4 26 4 15 14 20 38 20 36 0 51 -22 39
-54 -5 -13 1 -16 30 -16 35 0 49 13 23 23 -6 2 -26 41 -42 86 -28 75 -32 81
-59 81 -21 0 -27 -4 -22 -15z m51 -62 c5 -20 3 -23 -19 -23 -24 0 -24 2 -14
31 11 32 21 29 33 -8z"/>
<path d="M6370 18665 c0 -8 5 -15 10 -15 6 0 10 -28 10 -64 0 -36 -4 -68 -10
-71 -21 -13 -9 -25 25 -25 33 0 48 14 24 22 -6 2 -9 27 -7 62 l3 59 50 -71
c28 -39 56 -71 63 -72 8 0 12 22 12 79 0 44 5 83 10 86 21 13 9 25 -25 25 -24
0 -35 -5 -35 -15 0 -8 5 -15 10 -15 6 0 10 -23 10 -52 l0 -51 -47 66 c-39 54
-53 67 -75 67 -18 0 -28 -5 -28 -15z"/>
<path d="M6823 18656 c-23 -20 -28 -32 -28 -71 0 -39 5 -51 28 -71 39 -34 127
-32 127 2 0 10 -6 11 -26 4 -75 -29 -133 50 -83 114 24 31 49 33 74 6 25 -27
35 -25 35 8 0 26 -3 28 -49 30 -40 2 -55 -3 -78 -22z"/>
<path d="M7040 18670 c0 -5 5 -10 10 -10 6 0 10 -30 10 -69 0 -39 -4 -73 -10
-76 -21 -13 -9 -25 25 -25 24 0 35 5 35 15 0 8 -4 15 -10 15 -5 0 -10 14 -10
30 0 30 1 30 55 30 54 0 55 0 55 -29 0 -17 -4 -33 -10 -36 -21 -13 -9 -25 25
-25 34 0 46 12 25 25 -5 3 -10 35 -10 70 0 35 5 67 10 70 21 13 9 25 -25 25
-24 0 -35 -5 -35 -15 0 -8 5 -15 10 -15 6 0 10 -11 10 -25 0 -24 -3 -25 -55
-25 -52 0 -55 1 -55 25 0 14 5 25 10 25 6 0 10 7 10 15 0 10 -11 15 -35 15
-19 0 -35 -4 -35 -10z"/>
<path d="M7340 18665 c0 -8 5 -15 10 -15 6 0 10 -26 10 -58 0 -74 24 -102 88
-102 62 0 82 25 82 99 0 44 4 60 16 65 25 10 6 26 -32 26 -34 0 -42 -8 -25
-25 15 -16 16 -112 2 -129 -17 -21 -65 -20 -85 0 -18 18 -23 119 -6 129 21 13
9 25 -25 25 -24 0 -35 -5 -35 -15z"/>
<path d="M7650 18665 c0 -8 5 -15 10 -15 6 0 10 -28 10 -64 0 -36 -4 -68 -10
-71 -21 -13 -9 -25 25 -25 34 0 46 12 25 25 -13 8 -13 65 -1 65 25 0 44 -16
62 -51 12 -25 26 -39 39 -39 27 0 34 17 10 25 -11 3 -20 11 -20 17 0 6 -7 20
-17 30 -9 10 -11 18 -5 18 6 0 19 11 28 25 15 23 15 27 0 50 -15 23 -23 25
-86 25 -56 0 -70 -3 -70 -15z m129 -19 c21 -25 2 -46 -40 -46 -37 0 -39 2 -39
30 0 27 3 30 34 30 18 0 39 -6 45 -14z"/>
<path d="M7945 18655 c-35 -34 -35 -106 0 -140 29 -30 104 -35 125 -10 18 22
8 26 -28 13 -28 -11 -35 -10 -59 8 -37 28 -43 84 -14 113 26 26 46 26 71 1 28
-28 40 -25 40 9 0 28 -1 28 -55 30 -47 1 -60 -3 -80 -24z"/>
<path d="M8170 18671 c0 -6 5 -13 10 -16 6 -3 10 -35 10 -71 0 -36 -4 -64 -10
-64 -5 0 -10 -7 -10 -15 0 -10 11 -15 35 -15 34 0 46 12 25 25 -5 3 -10 19
-10 36 0 28 1 29 50 29 49 0 50 -1 50 -29 0 -17 -4 -33 -10 -36 -21 -13 -9
-25 25 -25 34 0 46 12 25 25 -5 3 -10 35 -10 71 0 36 4 64 10 64 6 0 10 7 10
15 0 10 -11 15 -35 15 -34 0 -46 -12 -25 -25 6 -3 10 -17 10 -31 0 -22 -4 -24
-50 -24 -46 0 -50 2 -50 24 0 14 5 28 10 31 21 13 9 25 -25 25 -19 0 -35 -4
-35 -9z"/>
<path d="M8930 18665 c0 -8 5 -15 10 -15 6 0 10 -28 10 -64 0 -36 -4 -68 -10
-71 -28 -17 -4 -26 62 -23 69 3 72 4 79 30 9 36 -8 47 -21 14 -8 -21 -16 -26
-45 -26 -34 0 -35 1 -35 40 0 39 1 40 26 34 20 -5 25 -3 22 7 -3 8 -15 13 -27
12 -17 -2 -21 3 -21 27 0 27 3 30 34 30 25 0 35 -5 39 -20 3 -11 11 -20 17
-20 7 0 10 7 6 16 -3 9 -6 22 -6 30 0 11 -16 14 -70 14 -56 0 -70 -3 -70 -15z"/>
<path d="M9170 18665 c0 -8 5 -15 10 -15 6 0 10 -28 10 -64 0 -36 -4 -68 -10
-71 -25 -16 -5 -25 56 -25 59 0 68 3 95 29 21 22 29 39 29 66 0 27 -8 44 -29
66 -27 26 -36 29 -95 29 -52 0 -66 -3 -66 -15z m131 -24 c17 -14 23 -28 22
-55 -1 -48 -27 -76 -70 -76 l-33 0 0 75 0 75 29 0 c16 0 39 -8 52 -19z"/>
<path d="M9450 18671 c0 -6 5 -13 10 -16 6 -3 10 -35 10 -70 0 -35 -4 -67 -10
-70 -21 -13 -9 -25 25 -25 19 0 35 5 35 10 0 6 -4 10 -10 10 -6 0 -10 26 -10
58 l1 57 27 -63 c16 -38 32 -61 41 -60 7 2 25 32 40 68 l26 64 3 -53 c2 -30
-2 -59 -7 -64 -19 -19 -12 -27 24 -27 34 0 46 12 25 25 -5 3 -10 35 -10 70 0
35 5 67 10 70 19 12 10 25 -18 25 -25 0 -31 -7 -61 -72 l-32 -73 -31 73 c-28
65 -33 72 -59 72 -16 0 -29 -4 -29 -9z"/>
<path d="M9809 18651 c-38 -39 -39 -87 -3 -130 22 -26 33 -31 70 -31 63 0 94
32 94 95 0 37 -5 51 -26 70 -39 36 -96 34 -135 -4z m111 -11 c42 -42 12 -130
-45 -130 -28 0 -65 43 -65 75 0 33 37 75 66 75 13 0 33 -9 44 -20z"/>
<path d="M10070 18671 c0 -6 5 -13 10 -16 6 -3 10 -35 10 -70 0 -35 -4 -67
-10 -70 -20 -12 -9 -25 20 -25 31 0 37 9 19 27 -5 5 -9 36 -7 67 l3 57 54 -75
c30 -42 58 -76 62 -76 5 0 9 36 9 79 0 44 5 83 10 86 21 13 9 25 -25 25 -36 0
-47 -16 -20 -26 11 -5 15 -20 14 -55 -1 -27 -3 -49 -5 -49 -1 0 -23 29 -49 65
-35 50 -52 65 -71 65 -13 0 -24 -4 -24 -9z"/>
<path d="M10357 18673 c-10 -10 -8 -53 2 -53 5 0 13 9 16 20 3 11 15 20 26 20
17 0 19 -7 19 -70 0 -40 -4 -70 -10 -70 -5 0 -10 -7 -10 -15 0 -10 11 -15 35
-15 34 0 46 12 25 25 -5 3 -10 37 -10 76 0 62 2 69 20 69 11 0 20 -6 20 -14 0
-8 5 -18 10 -21 6 -4 10 7 10 24 l0 31 -73 0 c-41 0 -77 -3 -80 -7z"/>
<path d="M10626 18649 c-28 -33 -34 -76 -14 -112 18 -34 40 -46 83 -46 43 0
65 12 83 46 35 65 -12 143 -86 143 -33 0 -45 -6 -66 -31z m113 -15 c12 -15 21
-37 21 -49 0 -49 -60 -91 -96 -67 -36 24 -44 92 -14 122 28 28 64 25 89 -6z"/>
<path d="M10880 18671 c0 -6 5 -13 10 -16 6 -3 10 -37 10 -76 0 -39 -4 -69
-10 -69 -5 0 -10 -4 -10 -10 0 -5 16 -10 35 -10 36 0 43 8 24 27 -5 5 -9 34
-7 64 l3 54 50 -72 c28 -40 56 -72 63 -73 8 0 12 22 12 79 0 44 5 83 10 86 21
13 9 25 -25 25 -24 0 -35 -5 -35 -15 0 -8 5 -15 10 -15 6 0 10 -23 10 -52 l0
-51 -47 66 c-39 54 -53 67 -75 67 -16 0 -28 -4 -28 -9z"/>
<path d="M8600 18580 c0 -5 23 -10 50 -10 28 0 50 5 50 10 0 6 -22 10 -50 10
-27 0 -50 -4 -50 -10z"/>
<path d="M2360 18231 c0 -5 6 -13 13 -19 6 -6 13 -37 15 -70 2 -47 0 -61 -13
-66 -24 -9 -8 -26 25 -26 33 0 49 17 26 26 -10 4 -16 18 -16 35 0 28 1 29 55
29 54 0 55 0 55 -29 0 -17 -4 -33 -10 -36 -21 -13 -9 -25 25 -25 34 0 46 12
25 25 -5 3 -10 35 -10 70 0 35 5 67 10 70 21 13 9 25 -25 25 -24 0 -35 -5 -35
-15 0 -8 5 -15 10 -15 6 0 10 -11 10 -25 0 -24 -3 -25 -55 -25 -51 0 -55 2
-55 24 0 13 7 27 16 30 8 3 12 10 9 16 -8 12 -75 13 -75 1z"/>
<path d="M2660 18231 c0 -6 5 -13 10 -16 6 -3 10 -35 10 -70 0 -35 -4 -67 -10
-70 -26 -16 -4 -25 64 -25 68 0 74 2 80 23 8 32 7 47 -4 47 -5 0 -12 -11 -16
-25 -5 -21 -12 -25 -46 -25 l-39 0 3 38 c3 34 5 37 32 34 20 -3 27 0 24 10 -3
7 -17 12 -32 11 -23 -2 -26 2 -26 28 0 27 3 29 36 29 27 0 37 -5 41 -20 6 -23
23 -27 23 -6 0 40 -11 46 -81 46 -38 0 -69 -4 -69 -9z"/>
<path d="M2955 18219 c8 -25 -32 -139 -52 -146 -25 -10 -13 -23 21 -23 32 0
34 2 32 33 -1 29 2 32 31 35 23 2 34 -2 42 -17 7 -13 8 -22 1 -26 -21 -13 -9
-25 25 -25 38 0 42 5 21 29 -7 9 -25 49 -40 89 -26 67 -30 72 -58 72 -25 0
-28 -3 -23 -21z m54 -66 c1 -7 -8 -13 -19 -13 -23 0 -25 12 -8 43 11 21 11 21
19 2 4 -11 8 -26 8 -32z"/>
<path d="M3170 18231 c0 -6 5 -13 10 -16 6 -3 10 -35 10 -70 0 -35 -4 -67 -10
-70 -26 -16 -4 -25 59 -25 87 0 111 16 118 82 5 42 3 50 -25 78 -28 27 -36 30
-96 30 -36 0 -66 -4 -66 -9z m139 -37 c12 -15 21 -37 21 -49 0 -38 -37 -75
-76 -75 l-34 0 0 75 0 75 34 0 c25 0 40 -7 55 -26z"/>
<path d="M3440 18234 c0 -4 7 -12 15 -18 8 -6 26 -45 38 -86 30 -100 51 -102
79 -10 l21 65 20 -67 c15 -52 24 -68 38 -68 13 0 21 12 29 43 25 94 34 119 47
124 26 10 12 23 -23 23 -30 0 -35 -3 -30 -17 8 -21 -13 -125 -24 -118 -4 3
-16 34 -25 70 -21 76 -39 83 -55 23 -6 -24 -16 -58 -22 -77 l-11 -35 -19 64
c-14 44 -17 65 -9 68 26 9 8 22 -29 22 -22 0 -40 -3 -40 -6z"/>
<path d="M3875 18219 c8 -25 -32 -139 -52 -146 -25 -10 -13 -23 21 -23 32 0
34 2 32 33 -1 29 2 32 31 35 23 2 34 -2 42 -17 7 -13 8 -22 1 -26 -21 -13 -9
-25 25 -25 38 0 42 5 22 29 -7 9 -26 49 -41 89 -26 67 -30 72 -58 72 -25 0
-28 -3 -23 -21z m54 -66 c1 -7 -8 -13 -19 -13 -23 0 -25 12 -8 43 11 21 11 21
19 2 4 -11 8 -26 8 -32z"/>
<path d="M4080 18231 c0 -5 8 -12 18 -15 36 -12 78 -125 52 -141 -21 -13 -9
-25 25 -25 24 0 35 5 35 15 0 8 -4 15 -10 15 -20 0 -10 47 20 93 16 26 34 47
40 47 5 0 10 5 10 10 0 6 -16 10 -36 10 -31 0 -35 -3 -29 -20 3 -11 -1 -30
-11 -45 l-17 -26 -17 28 c-10 17 -14 32 -9 39 5 6 6 14 2 17 -10 11 -73 8 -73
-2z"/>
<path d="M4514 18213 c-34 -37 -34 -104 1 -138 29 -30 104 -35 125 -10 18 22
8 26 -28 13 -28 -11 -35 -10 -59 8 -37 28 -43 84 -14 113 26 26 46 26 71 1 28
-28 40 -25 40 8 0 28 -2 29 -56 30 -48 1 -59 -2 -80 -25z"/>
<path d="M4730 18230 c0 -6 6 -13 13 -16 19 -7 18 -131 0 -138 -26 -10 -12
-26 21 -26 38 0 57 16 32 26 -10 4 -16 18 -16 35 0 28 1 29 55 29 54 0 55 0
55 -29 0 -17 -4 -33 -10 -36 -21 -13 -9 -25 25 -25 34 0 46 12 25 25 -5 3 -10
35 -10 70 0 35 5 67 10 70 21 13 9 25 -25 25 -34 0 -46 -12 -25 -25 6 -3 10
-17 10 -31 0 -23 -3 -24 -55 -24 -47 0 -55 3 -55 19 0 10 7 24 15 31 8 7 12
16 9 21 -7 13 -74 11 -74 -1z"/>
<path d="M5030 18231 c0 -6 5 -13 10 -16 6 -3 10 -35 10 -70 0 -35 -4 -67 -10
-70 -21 -13 -9 -25 25 -25 24 0 35 5 35 15 0 8 -4 15 -10 15 -16 0 -12 50 5
56 20 8 45 -14 62 -53 10 -25 20 -33 38 -33 27 0 34 15 11 23 -8 3 -22 19 -30
35 -14 27 -14 31 4 47 50 45 10 85 -83 85 -37 0 -67 -4 -67 -9z m130 -26 c21
-26 4 -45 -40 -45 -38 0 -40 2 -40 30 0 27 3 30 34 30 18 0 39 -7 46 -15z"/>
<path d="M5310 18225 c0 -8 5 -15 10 -15 6 0 10 -28 10 -64 0 -36 -4 -68 -10
-71 -21 -13 -9 -25 25 -25 34 0 46 12 25 25 -5 3 -10 37 -10 76 0 39 4 69 10
69 6 0 10 5 10 10 0 6 -16 10 -35 10 -24 0 -35 -5 -35 -15z"/>
<path d="M5488 18229 c-19 -10 -23 -45 -10 -66 4 -7 28 -19 52 -28 49 -17 64
-33 48 -52 -15 -19 -45 -16 -68 7 -25 25 -40 26 -40 3 0 -30 13 -38 66 -41 55
-3 84 13 84 46 0 29 -15 42 -66 61 -34 13 -49 25 -49 37 0 25 47 31 68 10 22
-23 39 -20 35 7 -3 19 -10 22 -53 24 -27 2 -58 -2 -67 -8z"/>
<path d="M5707 18233 c-10 -10 -8 -53 2 -53 5 0 13 9 16 20 3 11 15 20 26 20
17 0 19 -7 19 -69 0 -39 -4 -73 -10 -76 -21 -13 -9 -25 25 -25 34 0 46 12 25
25 -5 3 -10 37 -10 76 0 62 2 69 20 69 11 0 20 -6 20 -14 0 -8 5 -18 10 -21 6
-4 10 7 10 24 l0 31 -73 0 c-41 0 -77 -3 -80 -7z"/>
<path d="M5950 18231 c0 -6 5 -13 10 -16 6 -3 10 -35 10 -70 0 -35 -4 -67 -10
-70 -21 -13 -9 -25 25 -25 34 0 46 12 25 25 -5 3 -10 35 -10 70 0 35 5 67 10
70 21 13 9 25 -25 25 -19 0 -35 -4 -35 -9z"/>
<path d="M6165 18219 c8 -25 -32 -139 -52 -146 -25 -10 -13 -23 21 -23 32 0
34 2 32 33 -1 29 2 32 31 35 23 2 34 -2 42 -17 7 -13 8 -22 1 -26 -21 -13 -9
-25 25 -25 38 0 42 5 21 29 -7 9 -25 49 -40 89 -26 67 -30 72 -58 72 -25 0
-28 -3 -23 -21z m54 -66 c1 -7 -8 -13 -19 -13 -23 0 -25 12 -8 43 11 21 11 21
19 2 4 -11 8 -26 8 -32z"/>
<path d="M6380 18230 c0 -5 5 -10 10 -10 6 0 10 -30 10 -69 0 -39 -4 -73 -10
-76 -21 -13 -9 -25 25 -25 34 0 46 12 25 25 -5 3 -10 34 -10 68 l0 61 56 -77
c30 -42 60 -77 65 -77 5 0 9 36 9 80 0 47 4 80 10 80 6 0 10 7 10 15 0 10 -11
15 -35 15 -36 0 -43 -8 -24 -27 5 -5 9 -30 7 -54 l-3 -44 -44 63 c-36 51 -49
62 -72 62 -16 0 -29 -4 -29 -10z"/>
<path d="M6834 18213 c-34 -37 -34 -104 1 -138 29 -30 104 -35 125 -10 18 22
8 26 -28 13 -28 -11 -35 -10 -59 8 -37 28 -43 84 -14 113 26 26 46 26 71 1 28
-28 40 -25 40 8 0 28 -2 29 -56 30 -48 1 -59 -2 -80 -25z"/>
<path d="M7050 18230 c0 -6 6 -13 13 -16 19 -7 18 -131 0 -138 -26 -10 -12
-26 21 -26 38 0 57 16 32 26 -10 4 -16 18 -16 35 0 28 1 29 55 29 54 0 55 0
55 -29 0 -17 -4 -33 -10 -36 -21 -13 -9 -25 25 -25 34 0 46 12 25 25 -5 3 -10
35 -10 70 0 35 5 67 10 70 21 13 9 25 -25 25 -34 0 -46 -12 -25 -25 6 -3 10
-17 10 -31 0 -23 -3 -24 -55 -24 -47 0 -55 3 -55 19 0 10 7 24 15 31 8 7 12
16 9 21 -7 13 -74 11 -74 -1z"/>
<path d="M7350 18231 c0 -6 5 -13 10 -16 6 -3 10 -31 10 -61 0 -71 28 -104 90
-104 62 0 90 33 90 104 0 30 5 58 10 61 21 13 9 25 -25 25 -24 0 -35 -5 -35
-15 0 -8 5 -15 10 -15 6 0 10 -24 10 -53 0 -60 -19 -87 -62 -87 -39 0 -58 29
-58 88 0 29 5 52 10 52 6 0 10 7 10 15 0 10 -11 15 -35 15 -19 0 -35 -4 -35
-9z"/>
<path d="M7660 18230 c0 -5 5 -10 10 -10 6 0 10 -30 10 -69 0 -39 -4 -73 -10
-76 -21 -13 -9 -25 25 -25 34 0 46 12 25 25 -13 8 -13 52 0 60 17 11 50 -15
65 -50 9 -23 21 -35 34 -35 25 0 36 16 16 23 -7 3 -21 19 -29 35 -14 27 -14
31 4 47 25 23 25 47 2 68 -21 19 -152 25 -152 7z m130 -25 c21 -26 4 -45 -40
-45 -38 0 -40 2 -40 30 0 27 3 30 34 30 18 0 39 -7 46 -15z"/>
<path d="M7956 18209 c-36 -43 -35 -91 3 -130 22 -22 39 -29 68 -29 36 0 63
14 63 31 0 5 -13 3 -29 -2 -64 -22 -118 37 -91 100 17 41 53 51 84 22 29 -28
36 -27 36 7 0 27 -2 28 -54 30 -49 2 -56 0 -80 -29z"/>
<path d="M8180 18231 c0 -6 5 -13 10 -16 6 -3 10 -35 10 -70 0 -35 -4 -67 -10
-70 -21 -13 -9 -25 25 -25 34 0 46 12 25 25 -5 3 -10 19 -10 36 0 28 1 29 53
29 51 0 54 -1 53 -25 -1 -14 -7 -30 -14 -37 -21 -21 -13 -28 28 -28 40 0 54
15 25 26 -11 5 -15 22 -15 69 0 47 4 64 15 69 27 10 16 26 -18 26 -43 0 -51
-9 -31 -31 28 -31 11 -49 -46 -49 -46 0 -50 2 -50 24 0 14 5 28 10 31 21 13 9
25 -25 25 -19 0 -35 -4 -35 -9z"/>
<path d="M8970 18231 c0 -6 5 -13 10 -16 6 -3 10 -35 10 -70 0 -35 -4 -67 -10
-70 -21 -13 -9 -25 25 -25 34 0 46 12 25 25 -5 3 -10 22 -10 41 0 35 1 35 31
29 24 -6 30 -4 27 6 -3 8 -17 14 -31 14 -23 -1 -27 3 -27 27 0 24 4 28 29 28
18 0 34 -8 44 -22 19 -29 34 -16 19 17 -11 23 -17 25 -77 25 -36 0 -65 -4 -65
-9z"/>
<path d="M9242 18233 c-18 -7 -42 -57 -42 -88 0 -57 36 -94 93 -95 29 0 45 7
68 29 38 39 39 87 3 130 -21 26 -33 31 -67 30 -23 0 -48 -3 -55 -6z m97 -39
c24 -30 26 -55 10 -87 -15 -28 -28 -37 -56 -37 -56 0 -84 84 -43 128 28 30 64
28 89 -4z"/>
<path d="M9480 18231 c0 -6 5 -13 10 -16 6 -3 10 -35 10 -70 0 -35 -4 -67 -10
-70 -21 -13 -9 -25 25 -25 34 0 46 12 25 25 -13 8 -13 52 0 60 17 11 50 -15
65 -50 9 -23 21 -35 34 -35 25 0 36 16 16 23 -7 3 -21 19 -29 35 -14 27 -14
31 4 47 50 45 10 85 -83 85 -37 0 -67 -4 -67 -9z m130 -26 c21 -26 4 -45 -40
-45 -38 0 -40 2 -40 30 0 27 3 30 34 30 18 0 39 -7 46 -15z"/>
<path d="M9757 18233 c-10 -10 -8 -53 2 -53 5 0 13 9 16 20 3 11 15 20 26 20
17 0 19 -7 19 -69 0 -39 -4 -73 -10 -76 -21 -13 -9 -25 25 -25 34 0 46 12 25
25 -5 3 -10 37 -10 76 0 61 2 69 19 69 11 0 21 -9 24 -21 8 -29 25 -15 19 16
-4 24 -7 25 -76 25 -40 0 -76 -3 -79 -7z"/>
<path d="M10146 18221 c-28 -31 -12 -60 51 -87 40 -18 54 -29 51 -42 -5 -25
-50 -27 -73 -2 -25 27 -35 25 -35 -7 0 -27 2 -28 57 -30 64 -3 83 8 83 47 0
30 -12 44 -50 55 -42 12 -70 34 -64 50 8 19 58 19 74 0 19 -23 38 -18 33 8 -4
20 -11 23 -57 25 -41 2 -57 -2 -70 -17z"/>
<path d="M10425 18220 c8 -26 -32 -139 -52 -147 -25 -10 -13 -23 21 -23 32 0
34 2 32 33 -1 29 2 32 31 35 23 2 34 -2 42 -17 7 -13 8 -22 1 -26 -21 -13 -9
-25 25 -25 38 0 42 5 21 29 -8 9 -25 48 -39 86 -23 65 -27 70 -57 73 -29 3
-31 1 -25 -18z m43 -78 c-28 -5 -33 4 -19 35 l13 28 12 -30 c11 -27 11 -30 -6
-33z"/>
<path d="M10654 18219 c-17 -19 -17 -23 -3 -47 9 -16 29 -30 51 -37 45 -12 63
-28 55 -49 -9 -22 -50 -20 -72 4 -25 27 -35 25 -35 -8 0 -27 2 -28 56 -30 64
-3 84 9 84 48 0 30 -12 44 -50 55 -42 12 -70 34 -64 50 8 19 58 19 74 0 19
-23 38 -18 33 8 -4 20 -11 23 -57 25 -42 2 -56 -2 -72 -19z"/>
<path d="M10880 18230 c0 -5 5 -10 10 -10 6 0 10 -30 10 -69 0 -39 -4 -73 -10
-76 -21 -13 -9 -25 25 -25 39 0 40 2 23 29 -12 19 -5 51 10 51 5 0 21 -18 36
-40 21 -32 32 -40 56 -40 36 0 40 15 6 24 -13 3 -34 22 -46 41 -25 40 -21 51
36 86 43 26 43 39 -1 39 -28 0 -35 -4 -35 -19 0 -17 -47 -61 -64 -61 -10 0 -7
48 4 55 21 13 9 25 -25 25 -19 0 -35 -4 -35 -10z"/>
<path d="M8620 18150 c0 -6 27 -10 60 -10 33 0 60 4 60 10 0 6 -27 10 -60 10
-33 0 -60 -4 -60 -10z"/>
<path d="M8620 18110 c0 -6 27 -10 60 -10 33 0 60 4 60 10 0 6 -27 10 -60 10
-33 0 -60 -4 -60 -10z"/>
<path d="M3074 17785 c-34 -34 -34 -106 1 -141 21 -21 33 -24 85 -23 l60 2 0
33 c0 18 5 36 10 39 21 13 9 25 -25 25 -24 0 -35 -5 -35 -15 0 -8 5 -15 10
-15 6 0 10 -9 10 -20 0 -25 -40 -36 -72 -19 -32 16 -38 28 -38 71 0 61 54 87
103 48 33 -26 37 -25 37 8 0 28 -1 28 -61 30 -52 2 -64 -2 -85 -23z"/>
<path d="M3353 17786 c-23 -20 -28 -32 -28 -71 0 -39 5 -51 28 -71 30 -26 83
-32 119 -13 11 6 26 26 34 46 18 42 5 94 -29 118 -33 23 -91 19 -124 -9z m105
-12 c46 -32 19 -134 -35 -134 -40 0 -63 27 -63 73 0 68 47 97 98 61z"/>
<path d="M3641 17793 c-44 -37 -43 -126 1 -158 34 -23 92 -19 125 9 23 20 28
32 28 71 0 39 -5 51 -28 71 -34 29 -95 32 -126 7z m104 -23 c40 -44 12 -130
-42 -130 -34 0 -63 34 -63 75 0 65 66 99 105 55z"/>
<path d="M3890 17795 c0 -8 5 -15 10 -15 6 0 10 -28 10 -64 0 -36 -4 -68 -10
-71 -25 -16 -5 -25 56 -25 59 0 68 3 95 29 21 22 29 39 29 66 0 27 -8 44 -29
66 -27 26 -36 29 -95 29 -52 0 -66 -3 -66 -15z m131 -24 c52 -42 17 -131 -52
-131 l-29 0 0 75 0 75 29 0 c16 0 39 -8 52 -19z"/>
<path d="M4310 17801 c0 -6 5 -13 10 -16 6 -3 10 -35 10 -70 0 -35 -4 -67 -10
-70 -21 -13 -9 -25 25 -25 38 0 42 5 22 29 -8 10 -11 33 -7 64 l5 48 50 -70
c28 -39 55 -71 61 -71 8 0 12 28 13 83 1 45 6 84 11 85 23 8 7 22 -25 22 -36
0 -43 -8 -24 -27 5 -5 9 -31 7 -57 l-3 -47 -47 66 c-37 50 -53 65 -73 65 -14
0 -25 -4 -25 -9z"/>
<path d="M4600 17801 c0 -6 5 -13 10 -16 6 -3 10 -35 10 -70 0 -35 -4 -67 -10
-70 -26 -16 -4 -25 64 -25 72 0 74 0 79 28 8 37 -10 52 -22 19 -9 -22 -17 -27
-46 -27 -36 0 -36 1 -33 38 3 32 6 37 26 34 15 -2 22 2 22 13 0 13 -6 16 -25
11 -23 -6 -25 -3 -25 24 0 28 3 30 34 30 26 0 36 -5 41 -20 3 -11 11 -20 16
-20 10 0 11 7 3 38 -6 20 -12 22 -75 22 -38 0 -69 -4 -69 -9z"/>
<path d="M4830 17801 c0 -5 6 -11 13 -14 8 -3 24 -42 37 -86 30 -104 51 -109
76 -21 9 33 20 60 24 60 4 0 14 -27 23 -60 13 -46 21 -60 36 -60 15 0 22 14
36 71 10 40 26 80 36 90 26 26 24 29 -15 29 -34 0 -57 -15 -35 -22 8 -3 8 -19
-1 -61 -7 -31 -16 -57 -20 -57 -3 0 -15 30 -26 68 -26 89 -42 88 -68 -8 l-20
-75 -19 65 c-14 45 -17 65 -8 68 6 2 9 8 5 13 -7 12 -74 12 -74 0z"/>
<path d="M5228 17799 c-23 -13 -23 -52 -2 -70 9 -8 35 -21 58 -29 29 -11 41
-21 41 -35 0 -29 -48 -32 -75 -5 -25 25 -39 19 -33 -13 4 -20 11 -23 62 -25
66 -3 84 10 79 55 -2 24 -12 31 -58 50 -38 15 -55 27 -55 40 0 28 59 30 77 4
17 -24 28 -18 28 14 0 20 -5 22 -52 23 -29 1 -61 -3 -70 -9z"/>
<path d="M5613 17786 c-23 -20 -28 -32 -28 -71 0 -39 5 -51 28 -71 39 -33 127
-32 127 2 0 10 -6 11 -29 3 -68 -24 -126 52 -84 109 25 34 54 39 78 12 25 -27
35 -25 35 8 0 26 -3 28 -49 30 -40 2 -55 -3 -78 -22z"/>
<path d="M5830 17801 c0 -6 5 -13 10 -16 6 -3 10 -35 10 -70 0 -35 -4 -67 -10
-70 -21 -13 -9 -25 25 -25 24 0 35 5 35 15 0 8 -4 15 -10 15 -5 0 -10 14 -10
30 0 30 1 30 55 30 54 0 55 0 55 -29 0 -17 -4 -33 -10 -36 -21 -13 -9 -25 25
-25 19 0 35 5 35 10 0 6 -4 10 -10 10 -6 0 -10 32 -10 75 0 43 4 75 10 75 6 0
10 5 10 10 0 6 -16 10 -35 10 -34 0 -46 -12 -25 -25 6 -3 10 -17 10 -31 0 -23
-3 -24 -55 -24 -52 0 -55 1 -55 24 0 14 5 28 10 31 21 13 9 25 -25 25 -19 0
-35 -4 -35 -9z"/>
<path d="M6130 17795 c0 -8 5 -15 10 -15 6 0 10 -28 10 -64 0 -36 -4 -68 -10
-71 -21 -13 -9 -25 25 -25 24 0 35 5 35 15 0 8 -4 15 -10 15 -5 0 -10 14 -10
30 0 49 41 37 71 -21 19 -38 50 -52 64 -29 3 6 -1 10 -10 10 -9 0 -22 13 -28
30 -6 17 -15 30 -19 30 -4 0 4 11 17 25 30 29 31 39 5 65 -26 26 -150 30 -150
5z m130 -20 c19 -22 -5 -45 -46 -45 -31 0 -34 3 -34 30 0 27 3 30 34 30 18 0
39 -7 46 -15z"/>
<path d="M6400 17800 c0 -5 5 -10 10 -10 6 0 10 -30 10 -69 0 -39 -4 -73 -10
-76 -21 -13 -9 -25 25 -25 24 0 35 5 35 15 0 8 -4 15 -10 15 -6 0 -10 28 -10
65 0 37 4 65 10 65 6 0 10 7 10 15 0 10 -11 15 -35 15 -19 0 -35 -4 -35 -10z"/>
<path d="M6576 17791 c-25 -28 -12 -59 32 -78 63 -26 67 -30 67 -49 0 -28 -46
-30 -70 -4 -25 27 -35 25 -35 -8 0 -27 2 -28 59 -30 66 -3 84 10 79 55 -2 20
-12 32 -33 41 -62 27 -80 38 -80 52 0 21 58 25 75 6 17 -21 44 -21 36 0 -3 9
-6 19 -6 23 0 4 -24 8 -53 9 -42 2 -57 -2 -71 -17z"/>
<path d="M6801 17778 c0 -33 0 -33 16 -10 23 32 43 28 44 -10 3 -80 1 -112
-10 -116 -26 -9 -8 -22 29 -22 40 0 53 13 25 24 -11 4 -15 22 -15 76 0 63 2
70 19 70 11 0 23 -9 26 -20 9 -30 27 -24 23 8 -3 27 -4 27 -80 30 l-78 3 1
-33z"/>
<path d="M7050 17801 c0 -6 5 -13 10 -16 6 -3 10 -35 10 -71 0 -36 -4 -64 -10
-64 -5 0 -10 -7 -10 -15 0 -10 11 -15 35 -15 34 0 46 12 25 25 -5 3 -10 35
-10 70 0 35 5 67 10 70 21 13 9 25 -25 25 -19 0 -35 -4 -35 -9z"/>
<path d="M7264 17793 c7 -18 -41 -153 -55 -153 -5 0 -9 -4 -9 -10 0 -5 16 -10
35 -10 32 0 48 14 25 22 -5 2 -7 13 -4 26 5 17 14 22 39 22 36 0 51 -22 39
-54 -5 -13 1 -16 30 -16 35 0 49 13 23 23 -6 2 -26 41 -42 86 -28 75 -32 81
-59 81 -22 0 -27 -4 -22 -17z m51 -60 c5 -20 3 -23 -19 -23 -24 0 -24 2 -14
31 11 32 21 29 33 -8z"/>
<path d="M7480 17801 c0 -5 5 -13 10 -16 6 -3 10 -35 10 -71 0 -36 -4 -64 -10
-64 -5 0 -10 -7 -10 -15 0 -10 11 -15 35 -15 36 0 43 8 24 27 -5 5 -9 34 -7
63 l3 53 49 -72 c65 -93 77 -93 71 4 -3 55 -1 78 10 88 18 18 9 27 -27 27 -28
0 -37 -13 -18 -25 6 -3 10 -30 9 -58 l0 -52 -17 25 c-55 80 -79 105 -105 108
-15 2 -27 -1 -27 -7z"/>
<path d="M7910 17801 c0 -6 5 -13 10 -16 6 -3 10 -35 10 -70 0 -35 -4 -67 -10
-70 -21 -13 -9 -25 25 -25 34 0 46 12 25 25 -5 3 -10 22 -10 42 0 33 2 35 25
29 19 -5 25 -2 25 10 0 12 -7 15 -25 12 -22 -5 -25 -2 -25 23 0 26 4 29 31 29
22 0 32 -5 36 -20 5 -20 18 -26 26 -12 3 4 1 17 -4 30 -7 20 -15 22 -74 22
-36 0 -65 -4 -65 -9z"/>
<path d="M8140 17801 c0 -6 5 -13 10 -16 6 -3 10 -35 10 -70 0 -35 -4 -67 -10
-70 -26 -16 -4 -25 64 -25 72 0 74 0 79 28 8 37 -10 52 -22 19 -9 -22 -17 -27
-46 -27 -34 0 -35 1 -35 40 0 38 1 40 25 34 19 -5 25 -2 25 11 0 13 -6 16 -25
11 -23 -6 -25 -3 -25 24 0 28 3 30 35 30 24 0 35 -5 35 -14 0 -16 18 -31 26
-23 3 2 2 16 -2 31 -6 25 -9 26 -75 26 -38 0 -69 -4 -69 -9z"/>
<path d="M8380 17800 c0 -5 5 -10 10 -10 6 0 10 -32 10 -75 0 -43 -4 -75 -10
-75 -5 0 -10 -4 -10 -10 0 -6 30 -10 69 -10 63 0 69 2 75 23 13 51 -2 66 -22
21 -10 -20 -18 -25 -40 -22 -26 3 -27 6 -30 67 -2 36 2 69 7 74 19 19 12 27
-24 27 -19 0 -35 -4 -35 -10z"/>
<path d="M8620 17800 c0 -5 5 -10 10 -10 6 0 10 -32 10 -75 0 -43 -4 -75 -10
-75 -5 0 -10 -4 -10 -10 0 -6 30 -10 69 -10 63 0 69 2 75 23 13 51 -2 66 -22
21 -10 -20 -18 -25 -40 -22 -26 3 -27 6 -30 67 -2 36 2 69 7 74 19 19 12 27
-24 27 -19 0 -35 -4 -35 -10z"/>
<path d="M8907 17799 c-9 -5 -24 -24 -33 -41 -33 -64 11 -138 83 -138 48 0 72
16 89 57 18 42 5 94 -29 118 -24 17 -83 19 -110 4z m93 -29 c29 -29 27 -94 -2
-114 -50 -35 -100 -5 -100 59 0 66 59 98 102 55z"/>
<path d="M9140 17800 c0 -5 4 -10 10 -10 5 0 21 -38 36 -85 34 -110 53 -114
81 -17 l19 67 20 -65 c15 -51 24 -65 39 -65 16 0 24 15 41 80 13 44 27 81 33
83 24 8 9 22 -24 22 -33 0 -48 -14 -24 -22 8 -3 6 -21 -6 -63 l-18 -60 -22 70
c-13 39 -29 70 -36 70 -7 0 -22 -31 -34 -70 l-22 -70 -13 30 c-7 17 -13 49
-14 72 -1 42 -2 43 -33 43 -18 0 -33 -4 -33 -10z"/>
<path d="M9531 17791 c-31 -31 -14 -62 45 -84 54 -20 68 -35 52 -54 -16 -19
-52 -16 -73 7 -25 28 -37 25 -33 -7 3 -26 6 -28 59 -31 46 -2 58 1 74 18 18
20 18 24 4 48 -9 16 -32 33 -59 43 -31 12 -46 23 -48 38 -3 17 2 21 26 21 16
0 35 -7 42 -15 15 -18 40 -20 40 -2 0 24 -16 33 -62 36 -36 1 -52 -3 -67 -18z"/>
<path d="M9760 17801 c0 -6 5 -13 10 -16 6 -3 10 -35 10 -70 0 -35 -4 -67 -10
-70 -21 -13 -9 -25 25 -25 19 0 35 5 35 10 0 6 -4 10 -10 10 -5 0 -10 16 -10
35 l0 35 50 0 c49 0 50 -1 50 -29 0 -17 -4 -33 -10 -36 -21 -13 -9 -25 25 -25
24 0 35 5 35 15 0 8 -4 15 -10 15 -6 0 -10 28 -10 64 0 36 5 68 10 71 21 13 9
25 -25 25 -34 0 -46 -12 -25 -25 6 -3 10 -17 10 -31 0 -22 -4 -24 -50 -24 -46
0 -50 2 -50 24 0 14 5 28 10 31 21 13 9 25 -25 25 -19 0 -35 -4 -35 -9z"/>
<path d="M10050 17804 c0 -3 7 -12 15 -20 10 -10 15 -35 15 -75 0 -44 -4 -61
-15 -65 -28 -11 -15 -24 25 -24 40 0 53 13 25 24 -11 4 -15 22 -15 71 0 49 4
67 15 71 28 11 15 24 -25 24 -22 0 -40 -3 -40 -6z"/>
<path d="M10220 17801 c0 -6 5 -13 10 -16 6 -3 10 -35 10 -70 0 -35 -4 -67
-10 -70 -21 -13 -9 -25 25 -25 19 0 35 5 35 10 0 6 -4 10 -10 10 -15 0 -12 50
3 51 46 3 74 12 90 30 22 27 22 44 -3 69 -16 16 -33 20 -85 20 -36 0 -65 -4
-65 -9z m131 -27 c20 -24 -1 -48 -45 -52 -35 -3 -36 -2 -36 32 0 34 2 36 34
36 18 0 39 -7 47 -16z"/>
<path d="M5517 16743 c-12 -11 -8 -23 8 -23 12 0 15 -16 15 -80 0 -64 -3 -80
-15 -80 -8 0 -15 -7 -15 -15 0 -11 11 -15 40 -15 29 0 40 4 40 15 0 8 -4 15
-10 15 -5 0 -10 14 -10 30 0 29 1 30 49 30 42 0 53 4 70 27 24 30 20 58 -11
86 -15 12 -38 17 -87 17 -37 0 -71 -3 -74 -7z m151 -51 c5 -34 -15 -52 -59
-52 -39 0 -39 0 -39 41 l0 40 48 -3 c40 -3 47 -6 50 -26z"/>
<path d="M5767 16743 c-12 -11 -8 -23 8 -23 22 0 22 -155 -1 -164 -25 -10 -6
-26 31 -26 37 0 56 16 31 26 -10 4 -16 19 -16 40 0 29 3 34 24 34 26 0 41 -14
65 -63 17 -34 46 -46 64 -28 9 9 6 13 -9 17 -11 3 -28 22 -37 42 -15 34 -15
36 3 49 28 19 26 68 -2 87 -23 16 -148 23 -161 9z m151 -46 c6 -29 -17 -47
-59 -47 -38 0 -39 1 -39 33 0 19 2 36 5 39 3 2 24 2 47 -1 30 -4 44 -11 46
-24z"/>
<path d="M6040 16735 c0 -8 5 -15 10 -15 6 0 10 -33 10 -80 0 -47 -4 -80 -10
-80 -5 0 -10 -7 -10 -15 0 -13 14 -15 82 -13 81 3 82 3 90 33 10 39 -8 57 -21
22 -9 -24 -16 -27 -56 -27 l-45 0 0 41 c0 39 1 40 30 37 16 -2 30 2 32 7 2 6
-12 11 -29 13 -29 3 -33 7 -33 33 0 28 2 29 45 29 38 0 45 -3 45 -20 0 -12 7
-20 16 -20 12 0 15 6 10 23 -3 12 -6 28 -6 35 0 8 -23 12 -80 12 -64 0 -80 -3
-80 -15z"/>
<path d="M6293 16735 c-26 -18 -30 -57 -8 -78 8 -9 37 -23 64 -32 53 -17 70
-40 47 -63 -19 -19 -71 -7 -91 21 -18 26 -36 12 -29 -23 5 -23 10 -25 66 -28
70 -3 98 14 98 58 0 33 -13 45 -70 65 -60 21 -72 33 -59 56 13 25 54 24 79 -1
28 -28 42 -25 38 7 -3 26 -6 28 -58 30 -38 3 -62 -1 -77 -12z"/>
<path d="M6500 16739 c0 -6 7 -17 15 -25 10 -11 15 -36 15 -85 0 -55 -3 -69
-15 -69 -8 0 -15 -7 -15 -15 0 -12 16 -15 84 -15 78 0 84 1 90 23 9 33 7 57
-4 57 -5 0 -12 -11 -16 -25 -5 -22 -12 -25 -50 -25 l-44 0 0 41 c0 40 0 40 30
34 23 -5 30 -3 30 9 0 11 -9 16 -30 16 -27 0 -30 3 -30 30 0 28 2 30 39 30 31
0 41 -4 46 -20 7 -22 25 -27 25 -7 0 6 -3 22 -6 35 -6 20 -12 22 -85 22 -50 0
-79 -4 -79 -11z"/>
<path d="M6740 16735 c0 -8 5 -15 10 -15 6 0 10 -33 10 -80 0 -47 -4 -80 -10
-80 -5 0 -10 -7 -10 -15 0 -10 10 -15 34 -15 39 0 55 14 31 28 -13 6 -15 23
-13 77 l3 68 60 -86 c33 -47 66 -86 73 -87 9 0 12 25 12 95 0 57 4 95 10 95 6
0 10 7 10 15 0 10 -11 15 -35 15 -24 0 -35 -5 -35 -15 0 -8 5 -15 10 -15 6 0
10 -27 10 -61 l0 -62 -57 76 c-47 62 -63 77 -85 77 -18 0 -28 -5 -28 -15z"/>
<path d="M7024 16726 c-9 -39 6 -54 23 -22 9 17 21 26 31 24 24 -5 31 -157 7
-170 -27 -16 -16 -28 24 -28 43 0 61 14 36 28 -24 13 -17 165 7 170 12 2 21
-6 28 -24 14 -35 34 -18 24 20 -6 26 -8 26 -90 26 -80 0 -84 -1 -90 -24z"/>
<path d="M7279 16731 c-20 -16 -22 -23 -14 -47 10 -28 21 -36 98 -68 39 -17
47 -35 22 -56 -19 -16 -60 -6 -83 20 -24 28 -32 25 -32 -13 l0 -33 63 -2 c73
-2 100 12 100 52 0 36 -16 50 -78 73 -37 14 -51 24 -53 40 -5 34 41 42 78 14
39 -28 47 -27 42 7 -4 27 -6 29 -62 30 -44 1 -64 -3 -81 -17z"/>
<path d="M2853 15106 c-78 -11 -147 -26 -153 -32 -7 -7 -10 -48 -8 -105 l3
-94 67 3 68 3 2 -523 3 -523 99 -3 c73 -2 102 1 108 10 9 15 11 1248 2 1272
-7 19 -12 19 -191 -8z"/>
<path d="M3382 15121 c-56 -14 -108 -56 -133 -108 -23 -46 -24 -56 -24 -286 0
-238 0 -239 23 -258 13 -10 109 -46 213 -80 l189 -62 0 -127 c0 -153 -1 -155
-101 -155 -94 0 -103 10 -107 125 l-4 90 -104 0 -104 0 -6 -26 c-4 -15 -4 -77
-1 -138 8 -127 30 -185 87 -224 55 -37 104 -44 265 -41 144 4 152 5 198 32 38
22 54 41 73 80 23 50 24 60 24 288 0 206 -2 238 -16 250 -9 8 -105 44 -213 80
l-196 66 0 126 c0 157 3 162 105 162 43 0 74 -5 82 -13 8 -8 15 -49 18 -105
l5 -92 108 -3 107 -3 0 135 c0 127 -1 136 -28 187 -22 42 -38 58 -77 79 -46
23 -60 25 -200 27 -82 1 -165 -2 -183 -6z"/>
<path d="M4010 15111 c-11 -21 -14 -149 -4 -175 5 -13 25 -16 110 -16 l104 0
2 -542 3 -543 105 0 105 0 3 543 2 542 105 0 106 0 -3 103 -3 102 -312 3
c-301 2 -313 2 -323 -17z"/>
<path d="M5453 15118 c-6 -7 -36 -132 -67 -278 -31 -146 -92 -429 -135 -630
-44 -201 -77 -368 -74 -372 2 -5 49 -8 103 -8 117 0 110 -7 134 130 10 52 19
103 22 113 5 15 21 17 149 17 l143 0 6 -27 c3 -16 13 -68 22 -118 9 -49 21
-96 27 -102 6 -9 41 -13 108 -13 96 0 99 1 99 23 0 12 -25 137 -55 277 -30
140 -89 413 -130 605 -41 193 -79 360 -85 373 -9 21 -15 22 -134 22 -87 0
-126 -4 -133 -12z m182 -553 c25 -137 48 -258 51 -267 5 -16 -4 -18 -100 -18
-58 0 -106 2 -106 4 0 6 79 435 92 496 6 30 12 51 14 45 2 -5 24 -122 49 -260z"/>
<path d="M6145 15118 c-3 -7 -4 -299 -3 -648 l3 -635 105 0 105 0 5 355 c4
308 7 351 18 325 8 -16 45 -118 84 -225 38 -107 91 -253 117 -325 l47 -130 99
0 100 0 0 645 0 645 -97 3 c-89 2 -98 1 -108 -18 -8 -14 -10 -125 -9 -351 1
-181 0 -332 -3 -334 -3 -3 -14 21 -26 52 -11 32 -64 180 -116 328 -53 149
-102 281 -109 295 -12 24 -18 25 -110 28 -72 2 -99 -1 -102 -10z"/>
<path d="M7005 15118 c-3 -7 -4 -299 -3 -648 l3 -635 105 0 105 0 5 355 5 355
22 -60 c12 -33 52 -143 88 -245 37 -102 83 -230 102 -285 20 -55 41 -106 46
-113 7 -9 37 -12 106 -10 l96 3 0 645 0 645 -105 0 -105 0 -5 -355 c-3 -195
-8 -350 -11 -345 -4 6 -57 152 -119 325 -62 173 -118 330 -126 348 l-13 32
-96 0 c-67 0 -97 -4 -100 -12z"/>
<path d="M7860 15110 c-8 -15 -10 -181 -8 -568 l3 -547 25 -50 c48 -96 112
-119 325 -114 142 4 152 5 197 31 34 21 53 41 72 80 l26 52 0 562 c0 503 -2
562 -16 568 -9 3 -49 6 -89 6 -40 0 -80 -3 -89 -6 -14 -5 -16 -61 -16 -524 0
-458 -2 -520 -16 -534 -22 -22 -57 -29 -115 -24 -90 9 -83 -30 -89 561 l-5
522 -97 3 c-89 2 -98 1 -108 -18z"/>
<path d="M8926 15122 c-3 -5 -37 -157 -76 -338 -39 -181 -100 -464 -136 -628
-36 -165 -62 -305 -60 -313 4 -11 29 -13 108 -11 l102 3 7 30 c4 17 15 74 24
128 l17 98 147 -3 146 -3 20 -110 c30 -158 18 -145 134 -145 55 0 102 4 106 9
3 6 -8 72 -24 148 -17 76 -71 327 -121 558 -50 231 -98 456 -108 500 l-18 80
-131 3 c-72 1 -134 -1 -137 -6z m189 -577 c25 -138 45 -254 45 -258 0 -4 -45
-7 -100 -7 -73 0 -100 3 -100 13 0 6 21 131 47 275 30 165 50 257 55 245 4
-10 28 -131 53 -268z"/>
<path d="M9625 15118 c-3 -7 -4 -299 -3 -648 l3 -635 310 0 310 0 0 100 0 100
-202 3 -203 2 0 533 c0 401 -3 536 -12 545 -17 17 -197 16 -203 0z"/>
<path d="M868 13444 c-57 -17 -110 -69 -126 -123 -8 -24 -12 -124 -12 -273 0
-203 2 -237 16 -249 9 -7 104 -42 212 -78 l197 -66 0 -122 c0 -152 -4 -158
-104 -158 -94 0 -101 8 -101 109 0 44 -4 87 -8 94 -6 9 -35 12 -108 10 l-99
-3 -3 -129 c-2 -121 -1 -133 22 -180 28 -56 74 -93 133 -107 52 -12 290 -11
334 1 59 17 102 52 129 105 23 47 24 61 28 261 3 146 1 223 -7 247 l-12 36
-205 68 -204 68 0 131 c0 158 1 159 101 159 94 0 102 -9 107 -125 l4 -90 104
0 103 0 7 37 c4 20 4 82 0 137 -10 152 -51 217 -155 246 -55 15 -297 11 -353
-6z"/>
<path d="M1545 13448 c-3 -7 -4 -299 -3 -648 l3 -635 105 0 105 0 3 218 2 217
133 0 c122 0 137 2 183 25 103 52 117 107 112 438 -5 271 -9 292 -74 346 -21
17 -59 35 -86 41 -73 15 -477 13 -483 -2z m389 -210 c34 -15 38 -41 34 -237
-4 -196 0 -191 -125 -191 l-83 0 0 220 0 220 75 0 c41 0 85 -5 99 -12z"/>
<path d="M2496 13445 c-57 -20 -87 -45 -116 -96 l-25 -44 0 -490 c0 -535 -1
-529 59 -593 45 -48 105 -62 261 -62 189 0 254 24 302 113 16 29 18 76 21 514
2 328 -1 496 -8 523 -16 61 -72 117 -133 135 -67 20 -305 20 -361 0z m276
-212 c17 -15 18 -42 18 -424 0 -357 -2 -410 -16 -423 -11 -12 -36 -16 -94 -16
-58 0 -83 4 -94 16 -14 13 -16 66 -16 421 0 477 -8 443 108 443 56 0 80 -4 94
-17z"/>
<path d="M3172 13448 c-14 -14 -17 -1254 -4 -1276 6 -9 35 -12 108 -10 l99 3
5 215 5 215 56 3 56 3 53 -203 c29 -112 57 -211 62 -220 7 -15 24 -18 108 -18
97 0 100 1 100 23 0 12 -24 115 -54 228 l-54 207 23 10 c34 16 72 71 85 122 7
30 10 134 8 305 -3 283 -5 294 -66 350 -49 46 -104 55 -352 55 -162 0 -229 -3
-238 -12z m424 -223 c11 -14 14 -61 14 -199 0 -225 5 -216 -132 -216 l-98 0 0
213 c0 118 3 217 8 221 4 5 49 6 101 4 77 -3 96 -7 107 -23z"/>
<path d="M3965 13438 c-3 -13 -5 -59 -3 -103 l3 -80 105 -5 105 -5 3 -542 2
-543 104 0 c85 0 105 3 110 16 3 9 6 254 6 545 l0 529 105 0 106 0 -3 103 -3
102 -317 3 -318 2 -5 -22z"/>
<path d="M4745 13448 c-3 -7 -4 -299 -3 -648 l3 -635 105 0 105 0 3 268 2 267
98 0 c53 0 128 3 165 7 l68 6 -3 101 -3 101 -162 3 -163 2 0 165 0 165 213 2
212 3 0 100 0 100 -318 3 c-249 2 -319 0 -322 -10z"/>
<path d="M5556 13444 c-9 -24 -7 -1257 2 -1272 7 -9 78 -12 323 -10 l314 3 0
100 0 100 -212 3 -213 2 0 165 0 165 153 0 c83 0 158 4 165 8 9 6 12 35 10
108 l-3 99 -162 3 -163 2 0 160 0 160 198 0 c144 0 203 3 215 13 15 10 17 27
15 107 l-3 95 -316 3 c-282 2 -317 1 -323 -14z"/>
<path d="M6525 13451 c-68 -17 -107 -48 -141 -111 -17 -31 -19 -64 -22 -272
-2 -155 0 -243 7 -256 8 -15 65 -39 216 -89 l205 -68 0 -120 c0 -155 -3 -160
-99 -160 -96 0 -105 10 -111 123 l-5 87 -105 0 -105 0 0 -135 c0 -125 2 -138
25 -180 52 -92 116 -114 325 -108 162 4 186 11 236 65 53 56 54 62 57 323 3
227 2 247 -15 262 -10 9 -107 44 -215 79 l-198 63 0 122 c0 102 3 125 18 144
36 45 176 35 187 -13 3 -12 6 -56 7 -97 l3 -75 105 0 105 0 3 118 c3 140 -7
185 -55 238 -50 55 -104 69 -267 68 -72 -1 -144 -4 -161 -8z"/>
<path d="M7145 13438 c-3 -13 -5 -59 -3 -103 l3 -80 105 -5 105 -5 5 -540 5
-540 99 -3 c73 -2 102 1 108 10 4 7 8 253 8 546 l0 532 105 0 106 0 -3 103 -3
102 -317 3 -318 2 -5 -22z"/>
<path d="M8468 13444 c-57 -17 -110 -69 -126 -123 -9 -27 -12 -182 -12 -518
l0 -479 26 -52 c19 -39 38 -59 72 -80 45 -26 55 -27 197 -31 213 -5 277 18
325 114 22 44 24 62 25 180 l0 130 -99 3 c-73 2 -102 -1 -108 -10 -4 -7 -8
-50 -8 -94 0 -102 -7 -109 -105 -109 -46 0 -78 5 -88 14 -15 12 -17 54 -17
415 0 332 2 406 14 422 12 16 27 19 91 19 98 0 105 -8 105 -122 0 -80 1 -84
26 -93 42 -16 169 -13 184 5 9 11 11 48 8 139 -4 105 -9 131 -29 172 -26 52
-69 88 -128 104 -55 15 -297 11 -353 -6z"/>
<path d="M9400 13438 c-5 -13 -50 -214 -100 -448 -50 -234 -109 -507 -131
-607 -21 -99 -39 -191 -39 -202 0 -20 5 -21 104 -21 118 0 107 -8 125 93 6 31
16 82 22 112 l10 55 144 0 c128 0 144 -2 149 -17 3 -10 12 -58 21 -108 25
-143 17 -135 134 -135 55 0 102 4 105 8 6 11 -264 1264 -277 1280 -7 8 -46 12
-133 12 -120 0 -125 -1 -134 -22z m185 -529 c25 -134 48 -256 51 -271 l6 -28
-107 0 c-97 0 -106 2 -101 18 5 19 96 516 96 528 0 36 17 -40 55 -247z"/>
<path d="M10102 13448 c-17 -17 -17 -1259 0 -1276 14 -14 184 -17 192 -3 3 4
6 173 6 374 1 221 5 369 10 372 6 4 10 4 10 1 0 -31 165 -743 174 -748 19 -13
113 -9 123 5 6 6 45 172 88 367 43 195 81 362 86 370 5 8 9 -146 9 -355 0
-275 3 -374 12 -383 16 -16 180 -16 196 0 17 17 17 1259 0 1276 -8 8 -53 12
-135 12 -119 0 -124 -1 -133 -22 -9 -23 -180 -782 -180 -801 0 -36 -20 44
-100 403 -49 222 -96 407 -103 412 -20 13 -241 10 -255 -4z"/>
<path d="M11191 13446 c-8 -9 -10 -187 -9 -647 l3 -634 105 0 105 0 5 215 5
215 146 5 c138 5 148 6 187 33 23 15 52 46 64 70 22 40 23 55 26 292 4 291 -2
338 -55 396 -55 61 -98 69 -354 69 -170 0 -219 -3 -228 -14z m405 -221 c11
-14 14 -62 14 -195 0 -225 3 -220 -121 -220 l-89 0 0 213 c0 118 3 217 8 221
4 5 45 6 91 4 67 -4 86 -8 97 -23z"/>
<path d="M11993 13444 c-3 -9 -4 -217 0 -462 4 -355 8 -447 19 -453 17 -12
159 -11 177 0 12 8 15 83 15 468 l1 458 -103 3 c-88 2 -103 0 -109 -14z"/>
<path d="M11996 12348 c-10 -37 -7 -148 4 -169 9 -17 22 -19 100 -19 107 0
110 3 110 109 0 104 3 101 -110 101 -93 0 -98 -1 -104 -22z"/>
<path d="M6872 10875 c-46 -20 -65 -68 -46 -114 8 -19 11 -37 6 -40 -15 -10
-32 -49 -32 -74 0 -33 36 -76 77 -94 89 -37 185 58 142 140 -7 12 -16 25 -22
28 -6 4 -2 19 9 38 17 29 17 32 1 66 -11 24 -29 41 -52 51 -41 17 -41 17 -83
-1z m72 -78 c9 -14 7 -21 -7 -32 -33 -24 -71 11 -46 42 15 18 39 13 53 -10z
m6 -112 c17 -20 4 -62 -21 -70 -15 -5 -28 -1 -42 14 -18 17 -19 24 -9 46 13
29 52 34 72 10z"/>
<path d="M7593 10875 c-29 -12 -63 -58 -63 -85 0 -19 55 -11 68 10 22 35 72
21 72 -20 0 -5 -32 -48 -71 -96 -39 -47 -72 -97 -74 -110 -2 -24 -2 -24 106
-24 l109 0 0 30 c0 29 -1 30 -50 30 -27 0 -50 4 -50 9 0 5 21 32 46 60 75 83
70 163 -11 197 -41 17 -42 17 -82 -1z"/>
<path d="M7933 10879 c-51 -15 -77 -62 -82 -147 -4 -84 8 -121 51 -157 38 -32
104 -34 142 -4 42 33 56 71 56 150 0 84 -21 128 -74 153 -38 18 -47 18 -93 5z
m81 -81 c35 -50 10 -188 -34 -188 -40 0 -60 35 -60 103 0 72 18 107 55 107 13
0 31 -10 39 -22z"/>
<path d="M8274 10876 c-35 -16 -64 -51 -64 -78 0 -26 51 -24 68 2 14 22 42 26
60 8 21 -21 14 -34 -63 -126 -41 -49 -75 -99 -75 -111 0 -20 5 -21 110 -21
l110 0 0 30 c0 29 -1 30 -50 30 -30 0 -50 4 -50 11 0 6 20 33 45 61 48 53 62
97 46 140 -19 51 -86 77 -137 54z"/>
<path d="M4318 10753 c-3 -125 -4 -128 -26 -131 -13 -2 -30 2 -37 8 -18 15
-65 5 -65 -13 1 -33 53 -67 103 -67 29 0 46 7 68 29 l29 29 0 136 0 136 -35 0
-34 0 -3 -127z"/>
<path d="M4490 10761 c0 -106 2 -121 23 -152 44 -66 121 -83 184 -42 44 29 53
62 53 193 l0 120 -35 0 -35 0 0 -114 c0 -111 -1 -115 -26 -135 -18 -14 -31
-18 -47 -12 -36 13 -47 49 -47 159 l0 102 -35 0 -35 0 0 -119z"/>
<path d="M4860 10715 l0 -165 35 0 34 0 3 103 3 102 75 -102 c72 -99 76 -103
110 -100 l35 2 3 163 2 162 -39 0 -40 0 -3 -102 -3 -103 -75 103 c-68 94 -77
102 -107 102 l-33 0 0 -165z"/>
<path d="M5260 10715 l0 -165 105 0 105 0 0 30 c0 29 0 29 -67 32 l-68 3 -3
38 -3 37 60 0 61 0 0 35 0 35 -60 0 -60 0 0 30 0 30 70 0 70 0 0 30 0 30 -105
0 -105 0 0 -165z"/>
<path d="M5770 10851 c0 -20 6 -30 20 -34 19 -5 20 -14 20 -136 l0 -131 35 0
35 0 0 165 0 165 -55 0 c-54 0 -55 -1 -55 -29z"/>
<path d="M6047 10786 c-53 -106 -60 -156 -26 -199 44 -57 143 -53 182 6 38 58
7 162 -53 173 l-29 6 24 49 c14 27 25 51 25 54 0 3 -17 5 -38 5 -37 0 -37 -1
-85 -94z m87 -89 c39 -28 -1 -107 -41 -81 -32 20 -38 40 -20 68 19 29 35 32
61 13z"/>
<path d="M6580 10851 c0 -20 6 -30 20 -34 19 -5 20 -14 20 -136 l0 -131 35 0
35 0 0 165 0 165 -55 0 c-54 0 -55 -1 -55 -29z"/>
<path d="M8540 10850 c0 -28 3 -30 35 -30 40 0 43 -7 15 -43 -11 -14 -20 -29
-20 -35 0 -14 36 -43 43 -35 4 3 18 0 32 -7 27 -15 34 -57 13 -78 -18 -18 -52
-14 -66 8 -12 19 -14 19 -42 5 -26 -13 -29 -19 -20 -35 17 -33 60 -55 104 -54
32 1 46 8 73 38 52 56 43 134 -20 175 l-27 17 25 37 c42 61 37 67 -60 67 l-85
0 0 -30z"/>
<path d="M6330 10680 c0 -18 7 -20 70 -20 63 0 70 2 70 20 0 18 -7 20 -70 20
-63 0 -70 -2 -70 -20z"/>
<path d="M7146 10588 c-3 -13 -7 -42 -11 -66 -5 -43 -5 -43 22 -40 23 2 29 10
40 47 7 24 15 52 18 62 5 16 1 19 -29 19 -29 0 -36 -4 -40 -22z"/>
<path d="M2720 8580 l0 -210 80 0 c73 0 83 3 105 25 22 21 25 33 25 93 0 39
-5 73 -12 80 -9 9 -9 15 0 24 7 7 12 42 12 85 0 102 -12 113 -125 113 l-85 0
0 -210z m140 91 c0 -43 -3 -49 -23 -53 -39 -8 -47 1 -47 53 l0 49 35 0 35 0 0
-49z m-2 -178 l3 -53 -35 0 -36 0 0 56 0 55 33 -3 c31 -3 32 -4 35 -55z"/>
<path d="M3065 8778 c-7 -18 -85 -385 -85 -398 0 -5 15 -10 34 -10 31 0 34 3
40 40 7 42 28 55 77 48 19 -2 26 -12 33 -45 9 -40 12 -43 43 -43 18 0 33 3 33
8 0 4 -19 98 -42 209 l-43 203 -43 0 c-25 0 -45 -5 -47 -12z m63 -168 c7 -39
12 -77 12 -85 0 -17 -45 -21 -55 -5 -7 12 16 160 25 160 3 0 11 -32 18 -70z"/>
<path d="M3316 8774 c-22 -22 -27 -49 -24 -128 l3 -69 65 -22 65 -22 3 -47 3
-47 -33 3 c-29 3 -33 7 -36 36 -3 30 -6 32 -39 32 l-36 0 5 -52 c7 -66 31 -88
99 -88 59 0 98 16 105 44 3 12 4 55 2 95 l-3 74 -65 22 -65 22 0 44 c0 42 1
44 32 47 29 3 32 1 35 -30 3 -29 7 -33 36 -36 l32 -3 0 50 c0 73 -21 91 -104
91 -45 0 -69 -5 -80 -16z"/>
<path d="M3560 8580 l0 -210 35 0 35 0 0 68 c0 86 13 110 34 62 57 -136 53
-130 91 -130 43 0 43 -2 -16 125 -21 47 -39 92 -39 100 0 9 18 51 40 95 22 44
40 84 40 90 0 5 -15 10 -33 10 -31 0 -35 -4 -74 -82 l-42 -83 0 83 -1 82 -35
0 -35 0 0 -210z"/>
<path d="M3840 8580 l0 -210 105 0 105 0 0 35 0 35 -70 0 -70 0 0 55 0 55 56
0 55 0 -3 33 c-3 31 -4 32 -55 35 l-53 3 0 49 0 49 68 3 67 3 3 33 3 32 -105
0 -106 0 0 -210z"/>
<path d="M4092 8758 c3 -29 7 -33 36 -36 l32 -3 0 -175 0 -174 35 0 35 0 0
175 0 175 35 0 c33 0 35 2 35 35 l0 35 -106 0 -105 0 3 -32z"/>
<path d="M4350 8580 l0 -210 79 0 c107 0 123 13 129 104 3 47 0 72 -11 89 -13
20 -13 24 0 36 22 20 14 142 -11 170 -16 18 -31 21 -103 21 l-83 0 0 -210z
m140 90 l0 -50 -35 0 -35 0 0 50 0 50 35 0 35 0 0 -50z m-5 -175 c0 -49 -1
-50 -32 -53 l-33 -3 0 56 0 56 33 -3 c31 -3 32 -4 32 -53z"/>
<path d="M4652 8597 c-23 -107 -42 -201 -42 -211 0 -13 7 -17 32 -14 29 3 33
7 41 46 l8 43 42 -5 c23 -2 45 -5 48 -5 4 -1 9 -19 13 -41 6 -38 8 -40 41 -40
19 0 35 2 35 4 0 8 -81 381 -86 399 -4 13 -16 17 -48 17 l-42 0 -42 -193z
m103 9 c8 -43 15 -82 15 -86 0 -7 -29 -8 -61 -1 -3 0 1 39 10 86 8 47 16 83
18 81 2 -2 10 -38 18 -80z"/>
<path d="M4920 8580 l0 -210 100 0 100 0 0 35 0 35 -65 0 -65 0 0 175 0 175
-35 0 -35 0 0 -210z"/>
<path d="M5180 8580 l0 -210 100 0 100 0 0 35 0 35 -65 0 -65 0 0 175 0 175
-35 0 -35 0 0 -210z"/>
<path d="M5550 8784 c0 -7 80 -373 86 -396 4 -13 16 -18 39 -18 23 0 35 5 39
18 9 28 86 381 86 392 0 5 -15 10 -33 10 l-34 0 -23 -122 c-13 -68 -26 -132
-30 -142 -4 -12 -14 22 -29 95 -12 63 -24 126 -27 142 -5 23 -10 27 -40 27
-19 0 -34 -3 -34 -6z"/>
<path d="M5870 8770 c-18 -18 -20 -33 -20 -188 0 -203 0 -204 91 -210 53 -3
69 -1 89 16 25 20 25 21 25 190 0 208 -2 212 -102 212 -50 0 -67 -4 -83 -20z
m104 -46 c14 -5 16 -28 16 -145 l0 -139 -35 0 -35 0 0 139 c0 136 2 147 32
150 3 1 13 -2 22 -5z"/>
<path d="M6110 8580 l0 -210 100 0 100 0 0 35 0 35 -65 0 -65 0 0 175 0 175
-35 0 -35 0 0 -210z"/>
<path d="M6370 8580 l0 -210 100 0 100 0 0 35 0 35 -65 0 -65 0 0 175 0 175
-35 0 -35 0 0 -210z"/>
<path d="M6630 8580 l0 -210 105 0 105 0 0 35 0 35 -70 0 -70 0 0 54 0 55 52
3 c41 2 52 7 54 22 5 36 -6 46 -57 46 l-49 0 0 50 0 49 68 3 67 3 3 33 3 32
-105 0 -106 0 0 -210z"/>
<path d="M6880 8781 c0 -5 19 -53 42 -107 38 -88 43 -110 48 -199 l5 -100 33
-3 32 -3 0 80 c0 73 5 92 50 206 28 69 50 128 50 130 0 3 -15 5 -34 5 -33 0
-35 -2 -62 -71 -15 -38 -30 -72 -34 -74 -3 -2 -19 30 -34 71 -28 72 -30 74
-62 74 -19 0 -34 -4 -34 -9z"/>
<path d="M7180 8580 l0 -210 80 0 c73 0 83 3 105 25 22 21 25 33 25 93 0 38
-5 73 -12 80 -8 8 -8 15 2 26 8 11 11 40 8 91 -4 96 -14 104 -125 105 l-83 0
0 -210z m140 90 l0 -50 -35 0 -35 0 0 50 0 50 35 0 35 0 0 -50z m-2 -177 l3
-53 -35 0 -36 0 0 56 0 55 33 -3 c31 -3 32 -4 35 -55z"/>
<path d="M7526 8773 c-6 -20 -86 -390 -86 -398 0 -3 16 -5 35 -5 33 0 35 2 41
40 4 22 9 41 13 41 3 1 25 3 48 4 42 3 42 3 50 -38 8 -38 12 -42 41 -45 21 -2
32 1 32 10 0 7 -18 102 -41 211 l-42 197 -43 0 c-32 0 -44 -4 -48 -17z m72
-238 c-2 -13 -11 -19 -32 -21 -27 -1 -28 0 -22 38 4 21 11 62 18 91 l11 52 14
-70 c7 -38 12 -79 11 -90z"/>
<path d="M7755 8778 c-3 -8 -4 -101 -3 -208 l3 -195 103 -3 102 -3 0 36 0 35
-67 0 -68 0 0 173 0 172 -33 3 c-20 2 -34 -2 -37 -10z"/>
<path d="M8010 8580 l0 -211 103 3 102 3 0 30 0 30 -67 3 -68 3 0 174 0 175
-35 0 -35 0 0 -210z"/>
<path d="M8544 8769 c-17 -19 -19 -38 -19 -190 0 -199 1 -200 95 -207 77 -6
106 11 112 65 7 57 0 73 -33 73 -24 0 -28 -4 -31 -32 -3 -29 -7 -33 -35 -36
l-33 -3 0 141 0 141 33 -3 c28 -3 32 -7 35 -35 3 -29 7 -33 33 -33 29 0 29 1
29 54 0 70 -19 86 -106 86 -49 0 -65 -4 -80 -21z"/>
<path d="M8790 8580 l0 -210 100 0 100 0 0 35 0 35 -65 0 -65 0 0 175 0 175
-35 0 -35 0 0 -210z"/>
<path d="M9096 8618 c-20 -95 -40 -190 -43 -211 l-6 -38 34 3 c31 3 34 7 42
46 l8 42 47 -2 c46 -3 46 -3 55 -45 8 -41 10 -43 44 -43 31 0 35 2 30 23 -3
12 -22 101 -42 197 -20 96 -39 181 -41 188 -2 7 -21 12 -47 12 l-43 0 -38
-172z m99 -12 c8 -43 15 -81 15 -85 0 -10 -54 -8 -59 2 -4 9 20 169 25 164 3
-2 11 -39 19 -81z"/>
<path d="M9380 8770 c-18 -18 -20 -31 -18 -108 l3 -87 65 -21 65 -20 0 -45 c0
-42 -1 -44 -32 -47 -32 -3 -33 -2 -33 32 0 34 -2 36 -35 36 l-35 0 0 -47 c0
-27 4 -53 8 -59 25 -37 134 -47 172 -16 20 16 24 30 27 98 2 43 0 84 -4 90 -4
6 -35 20 -68 31 l-60 20 -3 47 -3 47 33 -3 c29 -3 33 -7 36 -36 3 -31 6 -33
35 -30 31 3 32 4 31 50 -1 70 -21 88 -101 88 -50 0 -67 -4 -83 -20z"/>
<path d="M9644 8769 c-16 -17 -19 -36 -19 -107 l0 -85 65 -22 65 -22 3 -47 3
-47 -33 3 c-29 3 -33 7 -36 36 -3 30 -6 32 -39 32 l-36 0 5 -52 c7 -68 31 -88
103 -88 38 0 60 6 79 21 26 20 27 24 24 107 l-3 85 -65 22 -65 22 0 44 c0 42
1 44 32 47 29 3 32 1 35 -30 3 -29 7 -33 36 -36 l32 -3 0 50 c0 73 -21 91
-103 91 -52 0 -67 -4 -83 -21z"/>
<path d="M9890 8580 l0 -210 35 0 35 0 0 210 0 210 -35 0 -35 0 0 -210z"/>
<path d="M10030 8763 c-20 -26 -21 -36 -18 -191 3 -158 4 -164 27 -183 39 -32
148 -23 173 15 4 6 8 33 8 59 l0 48 -32 -3 c-29 -3 -33 -7 -36 -36 -3 -31 -6
-33 -35 -30 l-32 3 0 135 0 135 32 3 c29 3 32 1 35 -30 3 -29 7 -33 36 -36
l32 -3 0 50 c0 73 -21 91 -104 91 -58 0 -67 -3 -86 -27z"/>
<path d="M5440 8405 c0 -19 5 -35 10 -35 7 0 7 -6 0 -19 -14 -27 -13 -31 8
-31 27 0 46 42 43 98 -1 18 -7 22 -31 22 -28 0 -30 -3 -30 -35z"/>
<path d="M8270 8405 c0 -19 5 -35 10 -35 6 0 8 -11 4 -25 -4 -18 -2 -25 9 -25
22 0 47 45 47 85 0 33 -2 35 -35 35 -33 0 -35 -2 -35 -35z"/>
<path d="M3184 8252 c-28 -18 -34 -56 -34 -207 0 -152 1 -156 25 -180 21 -22
33 -25 90 -25 95 0 105 13 105 135 l0 95 -50 0 -50 0 0 -35 c0 -24 5 -35 15
-35 11 0 15 -12 15 -46 l0 -45 -37 3 -38 3 0 135 0 135 37 3 c35 3 37 2 40
-30 3 -29 7 -33 36 -36 l32 -3 0 50 c0 74 -20 91 -107 91 -38 0 -73 -4 -79 -8z"/>
<path d="M3430 8050 l0 -210 35 0 35 0 0 70 c0 62 2 70 19 70 15 0 22 -14 36
-70 l17 -70 35 0 c32 0 35 2 29 23 -27 103 -29 125 -12 142 13 13 16 37 16
116 0 132 -7 139 -125 139 l-85 0 0 -210z m140 70 l0 -70 -35 0 -35 0 0 70 0
70 35 0 35 0 0 -70z"/>
<path d="M3720 8240 c-18 -18 -20 -33 -20 -187 0 -93 4 -173 8 -179 25 -38
134 -47 173 -15 24 19 24 23 24 189 0 208 -2 212 -102 212 -50 0 -67 -4 -83
-20z m120 -190 l0 -140 -35 0 -35 0 0 140 0 140 35 0 35 0 0 -140z"/>
<path d="M3962 8069 c3 -190 3 -191 28 -211 20 -17 36 -19 89 -16 92 6 91 4
91 231 l0 188 -32 -3 -33 -3 -3 -173 -2 -173 -33 3 -32 3 -3 173 -2 172 -36 0
-35 0 3 -191z"/>
<path d="M4227 8253 c-9 -8 -9 -376 -1 -397 9 -23 64 -21 65 2 0 9 1 41 2 70
1 52 1 52 33 52 38 0 85 16 96 33 4 7 8 57 8 113 0 129 -4 134 -117 134 -44 0
-83 -3 -86 -7z m133 -133 l0 -70 -29 0 c-29 0 -29 0 -33 70 l-3 70 33 0 32 0
0 -70z"/>
<path d="M4646 8245 c-23 -23 -28 -68 -24 -224 3 -136 4 -144 27 -162 40 -33
158 -23 183 15 4 6 8 53 8 104 l0 92 -50 0 -50 0 0 -35 c0 -24 5 -35 15 -35
11 0 15 -12 15 -46 l0 -45 -37 3 -38 3 0 135 0 135 37 3 c35 3 37 2 40 -30 3
-29 7 -33 36 -36 l32 -3 0 50 c0 74 -20 91 -109 91 -49 0 -74 -5 -85 -15z"/>
<path d="M4980 8255 c0 -4 -74 -346 -85 -392 -5 -21 -2 -23 30 -23 36 0 38 3
47 65 3 16 12 20 50 23 45 3 48 2 54 -25 13 -62 14 -63 50 -63 31 0 34 2 29
23 -11 46 -85 388 -85 392 0 3 -20 5 -45 5 -25 0 -45 -2 -45 -5z m64 -185 c9
-48 10 -77 4 -81 -15 -10 -53 -5 -53 6 0 26 28 169 31 160 2 -5 10 -44 18 -85z"/>
<path d="M5210 8050 l0 -210 29 0 c37 0 41 11 42 133 l1 102 23 -102 c28 -128
30 -133 54 -133 16 0 22 13 36 78 9 42 22 97 30 122 12 44 13 41 14 -77 l1
-123 35 0 35 0 0 211 0 210 -47 -3 -47 -3 -27 -123 c-15 -68 -29 -125 -32
-128 -2 -2 -17 54 -32 126 l-28 130 -43 0 -44 0 0 -210z"/>
<path d="M5560 8050 l0 -210 105 0 105 0 0 35 0 35 -70 0 -70 0 0 55 0 55 56
0 55 0 -3 33 c-3 32 -4 32 -56 32 l-52 0 0 52 0 52 68 3 67 3 3 33 3 32 -105
0 -106 0 0 -210z"/>
<path d="M5854 8252 c-24 -15 -34 -54 -34 -126 l0 -75 58 -21 c31 -11 63 -23
70 -25 7 -3 12 -23 12 -50 0 -46 0 -46 -32 -43 -29 3 -33 7 -36 36 -3 29 -6
32 -38 32 -34 0 -34 0 -34 -45 0 -65 31 -95 99 -95 61 0 100 16 107 44 3 12 4
55 2 96 l-3 75 -65 21 -65 20 0 45 c0 42 1 44 33 47 31 3 32 2 32 -32 0 -34 2
-36 35 -36 l35 0 0 50 c0 71 -21 90 -102 90 -35 0 -68 -4 -74 -8z"/>
<path d="M6262 8067 c-23 -107 -42 -201 -42 -210 0 -20 59 -24 64 -4 19 72 19
72 66 72 44 0 44 0 53 -42 8 -41 10 -43 43 -43 19 0 34 2 34 5 0 8 -80 378
-86 398 -4 13 -16 17 -48 17 l-42 0 -42 -193z m103 9 c8 -43 13 -81 10 -85 -3
-6 -21 -7 -56 -2 -3 1 1 39 10 86 8 47 16 83 18 81 2 -2 10 -38 18 -80z"/>
<path d="M6530 8050 l0 -210 35 0 34 0 3 116 3 115 40 -113 c39 -111 41 -113
73 -116 l32 -3 0 210 0 211 -35 0 -34 0 -3 -111 -3 -112 -39 112 -38 111 -34
0 -34 0 0 -210z"/>
<path d="M6810 8050 l0 -210 79 0 c63 0 84 4 102 19 24 19 24 23 24 189 0 214
1 212 -122 212 l-83 0 0 -210z m138 3 l-3 -138 -32 -3 -33 -3 0 140 0 141 35
0 36 0 -3 -137z"/>
<path d="M7200 8050 l0 -210 35 0 35 0 0 122 c0 67 2 119 4 117 3 -3 14 -50
26 -104 29 -139 29 -137 53 -133 19 3 25 17 48 123 l27 120 3 -120 4 -120 33
-3 32 -3 0 210 0 211 -43 0 -44 0 -29 -130 c-16 -71 -32 -124 -35 -117 -4 7
-14 48 -23 92 -33 159 -31 155 -81 155 l-45 0 0 -210z"/>
<path d="M7636 8238 c-3 -13 -22 -99 -41 -193 -20 -93 -39 -178 -41 -187 -4
-15 1 -18 30 -18 36 0 37 1 50 63 6 24 10 27 51 27 41 0 45 -3 51 -27 13 -62
14 -63 50 -63 31 0 34 2 29 23 -11 46 -85 388 -85 392 0 3 -20 5 -45 5 -38 0
-45 -3 -49 -22z m68 -168 c8 -45 10 -77 5 -81 -14 -9 -54 -4 -54 7 0 25 28
168 31 159 2 -5 10 -44 18 -85z"/>
<path d="M7870 8050 l0 -210 35 0 34 0 3 112 3 111 40 -111 c40 -112 40 -112
72 -112 l33 0 0 210 0 210 -35 0 -34 0 -3 -112 -3 -113 -40 113 c-40 112 -40
112 -72 112 l-33 0 0 -210z"/>
<path d="M8130 8254 c0 -3 23 -60 50 -126 46 -112 50 -127 50 -204 l0 -84 35
0 35 0 0 93 c0 86 3 99 45 201 25 59 45 112 45 117 0 5 -15 9 -34 9 -33 0 -35
-2 -62 -76 -25 -68 -29 -74 -41 -58 -7 10 -13 22 -13 27 0 4 -10 31 -21 58
-20 45 -24 49 -55 49 -19 0 -34 -3 -34 -6z"/>
<path d="M8567 8254 c-9 -9 -10 -376 -1 -398 4 -10 18 -16 35 -16 l29 0 0 122
c0 67 3 119 6 115 5 -5 53 -209 54 -229 0 -5 11 -8 24 -8 22 0 25 7 46 108 12
59 26 114 31 122 5 9 9 -35 9 -107 l0 -123 30 0 30 0 0 210 0 210 -44 0 -43 0
-17 -82 c-9 -46 -22 -105 -30 -133 l-13 -50 -22 100 c-40 176 -32 160 -77 163
-22 2 -43 0 -47 -4z"/>
<path d="M8940 8240 c-18 -18 -20 -33 -20 -185 0 -163 0 -166 25 -190 20 -21
34 -25 80 -25 46 0 60 4 81 25 l25 25 -3 171 c-4 200 -3 199 -105 199 -50 0
-67 -4 -83 -20z m120 -191 l0 -139 -35 0 -35 0 0 139 c0 125 2 140 18 143 9 2
25 2 35 0 15 -4 17 -19 17 -143z"/>
<path d="M9180 8050 l0 -210 35 0 35 0 0 70 c0 62 2 70 19 70 15 0 23 -13 36
-57 9 -32 18 -64 20 -70 2 -7 18 -13 35 -13 35 0 37 9 15 90 -13 50 -13 56 3
73 14 15 17 39 17 117 0 133 -6 140 -127 140 l-88 0 0 -210z m145 70 l0 -65
-37 -3 -38 -3 0 71 0 71 38 -3 37 -3 0 -65z"/>
<path d="M9450 8050 l0 -210 105 0 105 0 0 35 0 35 -70 0 -70 0 0 55 0 55 56
0 55 0 -3 33 c-3 31 -4 32 -55 35 l-53 3 0 50 0 49 70 0 70 0 0 35 0 35 -105
0 -105 0 0 -210z"/>
<path d="M9720 8110 l0 -150 29 0 c28 0 28 1 35 77 3 42 6 109 6 150 l0 73
-35 0 -35 0 0 -150z"/>
<path d="M9720 7875 c0 -32 2 -35 30 -35 28 0 30 3 30 35 0 32 -2 35 -30 35
-28 0 -30 -3 -30 -35z"/>
<path d="M3960 6964 c0 -7 5 -16 10 -19 6 -3 10 -50 10 -106 0 -59 -4 -99 -10
-99 -5 0 -10 -7 -10 -15 0 -11 11 -15 40 -15 29 0 40 4 40 15 0 8 -4 15 -10
15 -16 0 -13 207 3 213 20 7 0 19 -37 22 -24 1 -36 -2 -36 -11z"/>
<path d="M4146 6958 c-9 -12 -16 -33 -16 -46 0 -12 -7 -25 -15 -28 -8 -4 -15
-10 -15 -15 0 -5 7 -9 15 -9 12 0 15 -15 15 -75 0 -68 2 -75 20 -75 18 0 20 7
20 75 0 73 1 75 25 75 16 0 25 6 25 15 0 9 -9 15 -25 15 -21 0 -25 5 -25 29 0
28 22 47 41 35 5 -3 9 2 9 10 0 25 -56 20 -74 -6z"/>
<path d="M7280 6923 c0 -44 -3 -54 -12 -45 -20 20 -74 14 -104 -11 -36 -31
-38 -96 -4 -132 26 -27 86 -35 108 -13 9 9 12 9 12 0 0 -7 7 -12 15 -12 13 0
15 22 15 135 0 113 -2 135 -15 135 -12 0 -15 -13 -15 -57z m-11 -94 c12 -22
12 -29 0 -55 -27 -57 -99 -39 -99 25 0 59 70 81 99 30z"/>
<path d="M5020 6925 c0 -33 4 -45 15 -45 11 0 15 12 15 45 0 33 -4 45 -15 45
-11 0 -15 -12 -15 -45z"/>
<path d="M5595 6960 c-8 -14 3 -30 21 -30 8 0 14 9 14 20 0 21 -24 28 -35 10z"/>
<path d="M7482 6953 c2 -10 10 -18 18 -18 8 0 16 8 18 18 2 12 -3 17 -18 17
-15 0 -20 -5 -18 -17z"/>
<path d="M7900 6950 c0 -13 7 -20 20 -20 13 0 20 7 20 20 0 13 -7 20 -20 20
-13 0 -20 -7 -20 -20z"/>
<path d="M8205 6960 c-4 -7 -3 -16 3 -22 14 -14 45 -2 40 15 -6 16 -34 21 -43
7z"/>
<path d="M8510 6949 c0 -25 33 -22 38 4 2 12 -3 17 -17 17 -15 0 -21 -6 -21
-21z"/>
<path d="M5914 6923 c-3 -10 -10 -27 -16 -38 -8 -14 -8 -20 1 -23 6 -2 11 -28
11 -63 0 -46 5 -64 20 -79 22 -22 29 -24 49 -11 16 10 6 31 -15 31 -11 0 -14
14 -14 60 0 57 1 60 25 60 16 0 25 6 25 15 0 9 -9 15 -24 15 -18 0 -26 6 -28
22 -4 28 -26 35 -34 11z"/>
<path d="M6800 6918 c0 -13 -6 -30 -12 -37 -10 -11 -10 -14 0 -18 7 -3 12 -25
12 -59 0 -31 5 -64 10 -75 13 -24 70 -27 70 -4 0 8 -9 15 -20 15 -18 0 -20 7
-20 60 0 58 1 60 26 60 31 0 28 23 -4 28 -12 2 -22 12 -24 25 -4 31 -38 36
-38 5z"/>
<path d="M4360 6886 c0 -3 16 -39 35 -81 l34 -75 -19 -46 c-20 -45 -20 -45 0
-42 16 2 35 33 75 121 30 66 55 121 55 123 0 2 -9 4 -19 4 -14 0 -26 -16 -42
-55 -12 -30 -26 -55 -30 -55 -3 0 -17 25 -30 55 -16 36 -30 55 -41 55 -10 0
-18 -2 -18 -4z"/>
<path d="M4605 6865 c-56 -55 -18 -155 60 -155 51 0 85 36 85 90 0 54 -34 90
-85 90 -25 0 -44 -8 -60 -25z m105 -37 c13 -25 13 -31 0 -55 -21 -37 -62 -42
-84 -11 -9 12 -16 29 -16 38 0 9 7 26 16 38 22 31 63 26 84 -10z"/>
<path d="M4800 6817 c0 -94 12 -107 93 -105 l57 2 0 88 c0 72 -3 88 -15 88
-12 0 -15 -13 -15 -56 0 -66 -13 -94 -43 -94 -37 0 -47 19 -47 87 0 49 -3 63
-15 63 -12 0 -15 -15 -15 -73z"/>
<path d="M5120 6798 c0 -81 2 -88 20 -88 18 0 20 7 20 63 0 68 10 87 47 87 13
0 23 6 23 14 0 11 -13 14 -55 13 l-55 -1 0 -88z"/>
<path d="M5295 6866 c-35 -35 -35 -97 0 -131 26 -27 80 -34 116 -14 31 16 12
30 -32 23 -37 -6 -69 6 -69 27 0 4 28 9 63 11 60 3 62 4 59 28 -9 73 -88 105
-137 56z m95 -26 c6 -11 9 -20 8 -21 -23 -7 -88 -3 -88 6 0 36 63 48 80 15z"/>
<path d="M5600 6800 c0 -73 3 -90 15 -90 12 0 15 17 15 90 0 73 -3 90 -15 90
-12 0 -15 -17 -15 -90z"/>
<path d="M5690 6798 c0 -72 3 -88 15 -88 12 0 15 14 15 63 0 67 10 87 45 87
35 0 45 -20 45 -87 0 -49 3 -63 15 -63 12 0 15 14 15 70 0 92 -16 111 -95 107
l-55 -2 0 -87z"/>
<path d="M6056 6859 c-15 -17 -26 -43 -26 -59 0 -16 11 -42 26 -59 21 -26 33
-31 69 -31 23 0 48 6 54 13 16 20 5 26 -38 20 -28 -4 -42 0 -56 13 -18 19 -17
19 48 22 59 3 67 5 67 23 0 28 -26 75 -45 83 -39 14 -73 6 -99 -25z m92 -11
c23 -23 12 -34 -33 -34 -48 -1 -54 5 -29 30 18 19 45 21 62 4z"/>
<path d="M6250 6798 c0 -81 2 -88 20 -88 18 0 20 7 20 63 0 68 10 87 47 87 13
0 23 6 23 14 0 11 -13 14 -55 13 l-55 -1 0 -88z"/>
<path d="M6425 6866 c-35 -35 -35 -97 0 -131 26 -27 80 -34 116 -14 31 16 12
30 -32 23 -31 -5 -44 -2 -60 12 -21 19 -21 19 47 24 67 5 69 6 66 30 -9 73
-88 105 -137 56z m95 -26 c13 -23 15 -22 -33 -25 -41 -3 -55 8 -37 30 18 22
57 18 70 -5z"/>
<path d="M6627 6872 c-32 -35 -15 -67 46 -87 17 -5 32 -15 34 -22 6 -18 -44
-28 -63 -13 -12 10 -17 11 -27 1 -9 -10 -8 -15 7 -27 47 -34 122 -3 114 47 -2
17 -15 28 -48 40 -24 9 -46 21 -48 28 -6 17 28 26 51 12 29 -18 50 5 23 25
-27 19 -70 18 -89 -4z"/>
<path d="M6946 6859 c-35 -41 -34 -83 3 -120 23 -22 39 -29 69 -29 36 0 70 19
56 32 -3 3 -22 4 -42 1 -29 -4 -41 0 -56 16 l-19 21 66 0 c61 0 67 2 67 20 0
84 -92 121 -144 59z m94 -14 c17 -21 6 -29 -41 -31 -42 -1 -48 6 -23 30 20 20
48 20 64 1z"/>
<path d="M7480 6800 c0 -83 1 -90 20 -90 19 0 20 7 20 90 0 83 -1 90 -20 90
-19 0 -20 -7 -20 -90z"/>
<path d="M7570 6798 c0 -81 2 -88 20 -88 17 0 19 8 22 66 2 51 7 70 21 78 34
21 52 -4 55 -78 3 -59 5 -66 24 -66 19 0 20 4 16 70 -7 95 -21 110 -99 108
l-59 -2 0 -88z"/>
<path d="M7900 6780 c0 -103 -1 -110 -20 -110 -11 0 -20 -7 -20 -15 0 -23 57
-20 70 4 5 11 10 67 10 125 0 99 -1 106 -20 106 -19 0 -20 -7 -20 -110z"/>
<path d="M8015 6865 c-56 -55 -18 -155 60 -155 51 0 85 36 85 90 0 54 -34 90
-85 90 -25 0 -44 -8 -60 -25z m105 -37 c13 -25 13 -31 0 -55 -19 -34 -55 -41
-81 -17 -23 21 -24 52 -3 82 22 31 63 26 84 -10z"/>
<path d="M8210 6800 c0 -73 3 -90 15 -90 12 0 15 17 15 90 0 73 -3 90 -15 90
-12 0 -15 -17 -15 -90z"/>
<path d="M8300 6798 c0 -72 3 -88 15 -88 12 0 15 13 15 56 0 66 13 94 43 94
37 0 47 -19 47 -87 0 -49 3 -63 15 -63 12 0 15 15 15 73 0 94 -12 107 -93 105
l-57 -2 0 -88z"/>
<path d="M8510 6800 c0 -83 1 -90 20 -90 19 0 20 7 20 90 0 83 -1 90 -20 90
-19 0 -20 -7 -20 -90z"/>
<path d="M8600 6798 c0 -81 2 -88 20 -88 18 0 20 7 20 64 0 72 14 92 55 82 24
-6 25 -10 25 -76 0 -65 2 -70 21 -70 20 0 21 4 17 69 -5 94 -21 111 -99 109
l-59 -2 0 -88z"/>
<path d="M8834 6865 c-60 -60 0 -159 85 -140 36 8 43 -11 13 -38 -21 -19 -54
-22 -83 -7 -16 9 -19 7 -19 -8 0 -38 86 -43 127 -8 27 23 28 29 31 123 l4 99
-67 2 c-58 1 -69 -1 -91 -23z m104 -17 c29 -29 3 -98 -36 -98 -42 1 -70 54
-46 89 17 23 63 28 82 9z"/>
<path d="M4030 6395 c0 -113 2 -135 15 -135 11 0 15 12 15 48 0 62 18 97 50
97 32 0 50 -35 50 -97 0 -37 4 -48 16 -48 14 0 16 11 12 69 -5 91 -24 115 -85
108 l-43 -5 0 49 c0 37 -4 49 -15 49 -13 0 -15 -22 -15 -135z"/>
<path d="M6940 6395 c0 -113 2 -135 15 -135 13 0 15 22 15 135 0 113 -2 135
-15 135 -13 0 -15 -22 -15 -135z"/>
<path d="M8680 6481 l0 -49 -42 5 c-34 4 -48 0 -65 -16 -41 -39 -42 -102 -3
-141 16 -16 32 -19 85 -18 l65 2 0 133 c0 126 -1 133 -20 133 -17 0 -20 -7
-20 -49z m-12 -83 c7 -7 12 -28 12 -48 0 -43 -14 -60 -52 -60 -30 0 -48 23
-48 64 0 46 57 75 88 44z"/>
<path d="M5162 6503 c5 -26 38 -29 38 -4 0 15 -6 21 -21 21 -14 0 -19 -5 -17
-17z"/>
<path d="M6082 6503 c5 -26 38 -29 38 -4 0 15 -6 21 -21 21 -14 0 -19 -5 -17
-17z"/>
<path d="M3904 6473 c-3 -10 -10 -27 -16 -38 -8 -14 -8 -20 1 -23 6 -2 11 -26
11 -58 0 -31 5 -64 10 -75 13 -24 70 -27 70 -4 0 8 -3 14 -7 14 -28 -5 -33 4
-33 61 0 57 1 60 25 60 16 0 25 6 25 15 0 9 -9 15 -24 15 -18 0 -26 6 -28 22
-4 28 -26 35 -34 11z"/>
<path d="M5440 6468 c0 -13 -6 -30 -12 -37 -10 -11 -10 -14 0 -18 8 -3 12 -26
12 -64 0 -67 22 -102 59 -92 27 7 27 33 1 33 -18 0 -20 7 -20 60 0 58 1 60 26
60 31 0 28 23 -4 28 -12 2 -22 12 -24 25 -4 31 -38 36 -38 5z"/>
<path d="M5960 6465 c0 -14 -7 -28 -15 -31 -8 -4 -15 -10 -15 -15 0 -5 7 -9
15 -9 12 0 15 -14 15 -62 0 -82 8 -93 63 -89 25 2 21 16 -8 29 -22 10 -25 18
-25 67 0 52 1 55 25 55 16 0 25 6 25 15 0 9 -9 15 -25 15 -20 0 -25 5 -25 25
0 16 -6 25 -15 25 -9 0 -15 -9 -15 -25z"/>
<path d="M4265 6415 c-56 -56 -18 -155 60 -155 41 0 78 16 70 31 -4 5 -24 6
-46 3 -37 -6 -69 6 -69 27 0 4 28 9 63 11 l62 3 -3 30 c-8 71 -88 100 -137 50z
m82 -13 c29 -18 18 -35 -24 -37 -44 -1 -54 10 -31 33 14 14 37 15 55 4z"/>
<path d="M4570 6349 c0 -81 2 -90 18 -87 13 3 18 15 20 63 4 67 14 85 48 85
15 0 24 6 24 15 0 17 -32 20 -61 5 -13 -7 -19 -7 -19 0 0 5 -7 10 -15 10 -12
0 -15 -17 -15 -91z"/>
<path d="M4739 6411 c-37 -37 -38 -79 -3 -120 21 -26 33 -31 68 -31 39 0 66
13 66 32 0 4 -19 5 -43 2 -34 -5 -47 -2 -62 12 -18 19 -17 19 48 22 59 3 67 5
67 23 0 28 -26 75 -45 83 -35 13 -67 5 -96 -23z m89 -13 c25 -25 13 -38 -33
-36 -49 3 -54 8 -29 32 18 19 45 21 62 4z"/>
<path d="M4955 6416 c-68 -68 12 -181 96 -136 26 15 26 -13 -1 -40 -22 -22
-51 -26 -81 -10 -16 9 -19 7 -19 -9 0 -22 19 -31 66 -31 41 0 83 36 85 72 1
23 1 143 0 163 -1 6 -28 11 -61 13 -53 2 -64 -1 -85 -22z m99 -22 c21 -20 20
-47 -2 -74 -23 -29 -67 -21 -84 15 -23 52 46 100 86 59z"/>
<path d="M5170 6350 c0 -73 3 -90 15 -90 12 0 15 17 15 90 0 73 -3 90 -15 90
-12 0 -15 -17 -15 -90z"/>
<path d="M5267 6422 c-32 -35 -15 -67 47 -87 17 -5 31 -17 31 -25 0 -19 -41
-25 -61 -9 -12 10 -17 10 -27 0 -17 -17 17 -41 59 -41 38 0 64 22 64 54 0 27
-13 39 -55 53 -16 5 -30 16 -30 24 0 18 35 25 46 8 7 -11 10 -12 21 -1 11 11
9 16 -6 28 -27 19 -70 18 -89 -4z"/>
<path d="M5580 6350 c0 -73 3 -90 15 -90 12 0 15 13 15 59 0 63 15 91 50 91
10 0 20 7 24 15 4 11 -2 15 -22 15 -16 0 -33 -5 -39 -11 -8 -8 -13 -8 -17 0
-18 28 -26 3 -26 -79z"/>
<path d="M5751 6423 c-46 -38 -42 -126 8 -152 26 -15 74 -14 89 1 9 9 12 9 12
0 0 -7 7 -12 15 -12 12 0 15 17 15 90 0 73 -3 90 -15 90 -8 0 -15 -5 -15 -12
0 -9 -3 -9 -12 0 -18 18 -73 15 -97 -5z m98 -47 c12 -26 12 -33 0 -55 -18 -32
-54 -39 -80 -15 -23 21 -24 52 -3 82 23 33 64 26 83 -12z"/>
<path d="M6090 6350 c0 -73 3 -90 15 -90 12 0 15 17 15 90 0 73 -3 90 -15 90
-12 0 -15 -17 -15 -90z"/>
<path d="M6195 6415 c-56 -55 -18 -155 60 -155 51 0 85 36 85 90 0 54 -34 90
-85 90 -25 0 -44 -8 -60 -25z m105 -37 c13 -25 13 -31 0 -55 -19 -34 -55 -41
-81 -17 -23 21 -24 52 -3 82 22 31 63 26 84 -10z"/>
<path d="M6390 6348 c0 -72 3 -88 15 -88 12 0 15 14 15 63 0 68 10 87 47 87
30 0 43 -28 43 -94 0 -43 3 -56 15 -56 12 0 15 14 15 70 0 92 -16 111 -95 107
l-55 -2 0 -87z"/>
<path d="M6710 6315 c0 -104 2 -125 15 -125 11 0 15 11 15 39 l0 38 48 -4 c41
-4 50 -2 72 22 36 38 34 99 -3 131 -30 26 -66 31 -98 14 -13 -7 -19 -7 -19 0
0 5 -7 10 -15 10 -13 0 -15 -21 -15 -125z m122 78 c38 -34 13 -103 -36 -103
-30 0 -49 23 -49 60 0 55 46 79 85 43z"/>
<path d="M7062 6433 c-19 -7 -42 -58 -42 -91 0 -43 40 -82 85 -82 40 0 79 16
70 30 -3 4 -23 6 -45 3 -38 -5 -70 8 -70 28 0 5 27 9 59 9 33 0 63 5 66 10 10
16 -15 79 -35 90 -19 10 -66 12 -88 3z m76 -35 c24 -24 13 -35 -33 -35 -46 0
-57 11 -33 35 7 7 21 12 33 12 12 0 26 -5 33 -12z"/>
<path d="M7256 6415 c-57 -53 -20 -155 57 -155 18 0 38 5 45 12 9 9 12 9 12 0
0 -7 8 -12 18 -12 17 0 19 9 18 84 -1 89 -7 106 -30 87 -10 -8 -16 -9 -21 -1
-12 19 -71 11 -99 -15z m98 -27 c21 -29 20 -57 -1 -80 -52 -58 -120 28 -71 90
16 19 55 14 72 -10z"/>
<path d="M7472 6424 c-36 -25 -25 -55 28 -81 25 -11 45 -27 45 -35 0 -17 -42
-23 -61 -7 -12 10 -17 10 -27 0 -17 -17 17 -41 59 -41 39 0 64 22 64 56 0 20
-9 29 -45 45 -25 11 -45 24 -45 30 0 15 30 23 43 10 16 -16 37 -14 37 4 0 33
-61 45 -98 19z"/>
<path d="M7646 6409 c-15 -17 -26 -43 -26 -59 0 -16 11 -42 26 -59 21 -26 33
-31 69 -31 23 0 48 6 54 13 16 20 5 26 -37 20 -29 -4 -41 0 -56 16 l-19 21 66
0 c61 0 67 2 67 20 0 84 -92 121 -144 59z m94 -14 c18 -22 2 -36 -41 -33 -43
2 -43 2 -29 29 13 22 52 25 70 4z"/>
<path d="M7966 6427 c-12 -9 -17 -23 -14 -42 2 -25 10 -32 46 -45 43 -15 55
-36 26 -47 -9 -3 -25 -1 -35 5 -10 7 -25 9 -34 6 -14 -6 -14 -8 1 -25 26 -29
89 -26 110 6 23 35 10 61 -38 77 -23 8 -44 20 -46 26 -6 18 28 27 51 13 26
-17 44 1 22 23 -20 19 -64 21 -89 3z"/>
<path d="M8145 6416 c-35 -35 -35 -97 0 -131 26 -27 80 -34 116 -14 31 16 12
30 -32 23 -37 -6 -69 6 -69 27 0 4 28 9 63 11 60 3 62 4 59 28 -9 73 -88 105
-137 56z m91 -23 c15 -16 15 -17 -2 -24 -26 -10 -47 -10 -63 0 -12 8 -12 12
-2 25 17 21 45 20 67 -1z"/>
<path d="M8340 6348 c0 -72 3 -88 15 -88 12 0 15 14 15 63 0 68 10 87 47 87
30 0 43 -28 43 -94 0 -43 3 -56 15 -56 12 0 15 14 15 70 0 92 -16 111 -95 107
l-55 -2 0 -87z"/>
<path d="M8906 6409 c-28 -33 -33 -68 -14 -102 19 -37 40 -46 106 -44 l62 1 0
86 0 86 -64 2 c-61 1 -66 0 -90 -29z m98 -15 c35 -35 10 -104 -38 -104 -31 0
-46 18 -46 56 0 36 22 64 50 64 10 0 26 -7 34 -16z"/>
<path d="M5762 6060 c-18 -11 -41 -34 -52 -52 -70 -115 64 -247 178 -178 28
17 32 23 21 36 -10 13 -14 13 -28 0 -87 -78 -202 52 -125 143 20 24 34 31 63
31 20 0 42 -5 48 -11 12 -12 33 -4 33 11 0 13 -55 40 -82 40 -13 0 -38 -9 -56
-20z"/>
<path d="M6550 5945 c0 -128 1 -135 20 -135 19 0 20 7 20 135 0 128 -1 135
-20 135 -19 0 -20 -7 -20 -135z"/>
<path d="M6850 5975 c0 -81 -3 -107 -16 -119 -20 -21 -30 -20 -54 4 -25 25
-40 25 -40 1 0 -46 79 -66 121 -32 22 18 24 28 27 129 4 104 3 109 -17 115
-20 5 -21 2 -21 -98z"/>
<path d="M7480 5946 l0 -136 81 0 c71 0 80 2 77 18 -2 13 -15 18 -61 20 l-57
3 0 39 0 39 53 3 c38 2 52 7 52 18 0 11 -14 16 -52 18 l-53 3 0 35 0 34 60 0
c47 0 60 3 60 15 0 12 -14 15 -64 15 -35 0 -71 3 -80 6 -14 5 -16 -10 -16
-130z"/>
<path d="M7900 5945 c0 -113 2 -135 15 -135 11 0 15 13 15 53 0 62 21 100 53
95 29 -4 47 -43 47 -100 0 -37 4 -48 16 -48 14 0 16 11 12 71 -3 61 -7 74 -28
91 -18 15 -34 19 -62 15 l-38 -5 0 49 c0 37 -4 49 -15 49 -13 0 -15 -22 -15
-135z"/>
<path d="M9075 6060 c-8 -14 3 -30 21 -30 8 0 14 9 14 20 0 21 -24 28 -35 10z"/>
<path d="M5250 6015 c0 -13 -8 -29 -17 -35 -17 -10 -17 -10 0 -20 13 -9 17
-24 17 -68 0 -65 11 -82 52 -82 35 0 37 17 3 26 -23 6 -25 11 -25 65 0 56 1
59 25 59 16 0 25 6 25 15 0 9 -9 15 -25 15 -20 0 -25 5 -25 25 0 16 -6 25 -15
25 -9 0 -15 -9 -15 -25z"/>
<path d="M3610 5899 c0 -82 2 -89 20 -89 17 0 19 8 22 73 3 69 4 72 28 72 24
0 25 -3 28 -72 2 -63 5 -73 21 -73 15 0 18 10 20 68 2 72 9 86 37 80 16 -3 19
-14 22 -76 2 -55 6 -72 17 -72 12 0 15 16 15 74 0 88 -15 111 -64 102 -17 -4
-35 -6 -41 -6 -5 1 -36 2 -67 5 l-58 3 0 -89z"/>
<path d="M3922 5968 c-30 -33 -36 -70 -18 -107 19 -36 44 -51 85 -51 39 0 61
9 61 26 0 10 -10 12 -43 8 -35 -5 -45 -2 -61 15 l-19 21 66 0 67 0 0 29 c0 15
-9 40 -21 55 -27 35 -86 36 -117 4z m88 -23 c16 -19 8 -27 -27 -31 -46 -6 -59
3 -38 26 22 24 48 26 65 5z"/>
<path d="M4126 5977 c-12 -9 -17 -23 -14 -42 2 -25 10 -32 46 -45 43 -15 55
-36 26 -47 -9 -3 -25 -1 -35 5 -10 7 -25 9 -34 6 -29 -11 12 -44 55 -44 81 0
95 77 18 102 -23 8 -44 20 -46 26 -6 18 28 27 50 13 27 -17 43 -3 22 20 -20
22 -62 25 -88 6z"/>
<path d="M4295 5970 c-28 -31 -13 -65 36 -82 44 -14 51 -26 25 -43 -11 -7 -22
-6 -37 3 -15 10 -25 10 -32 3 -18 -18 12 -41 54 -41 45 0 71 23 67 59 -2 20
-12 29 -48 42 -24 9 -46 21 -48 28 -6 17 28 26 51 12 29 -18 50 5 23 25 -28
20 -70 17 -91 -6z"/>
<path d="M4476 5959 c-29 -35 -33 -67 -11 -109 18 -34 33 -40 108 -38 l57 2 0
86 0 86 -64 2 c-61 1 -66 0 -90 -29z m96 -16 c37 -34 13 -103 -36 -103 -32 0
-46 19 -46 62 0 53 44 76 82 41z"/>
<path d="M4700 5965 c-65 -70 17 -179 101 -135 26 15 26 -13 -1 -40 -22 -22
-60 -26 -91 -10 -15 8 -19 7 -19 -4 0 -41 98 -49 135 -11 23 22 25 31 25 125
0 82 -3 100 -15 100 -8 0 -15 -5 -15 -12 0 -9 -3 -9 -12 0 -22 22 -82 14 -108
-13z m105 -25 c41 -45 -18 -110 -70 -76 -29 19 -32 51 -8 78 21 24 55 23 78
-2z"/>
<path d="M4933 5966 c-22 -19 -28 -32 -28 -66 0 -34 6 -47 28 -66 30 -26 83
-32 118 -13 31 16 12 29 -34 23 -35 -5 -45 -2 -61 15 l-19 21 66 0 67 0 0 29
c0 73 -80 106 -137 57z m86 -15 c8 -5 11 -16 8 -25 -7 -17 -27 -20 -65 -10
-22 6 -22 8 -6 25 18 20 41 24 63 10z"/>
<path d="M5393 5966 c-61 -52 -21 -156 60 -156 44 0 75 24 83 64 17 94 -73
152 -143 92z m92 -20 c21 -15 25 -67 5 -90 -29 -36 -90 -8 -90 41 0 51 46 78
85 49z"/>
<path d="M5991 5973 c-46 -38 -42 -126 8 -152 26 -15 74 -14 89 1 9 9 12 9 12
0 0 -7 7 -12 15 -12 12 0 15 17 15 90 0 73 -3 90 -15 90 -8 0 -15 -5 -15 -12
0 -9 -3 -9 -12 0 -18 18 -73 15 -97 -5z m99 -45 c13 -25 13 -31 0 -55 -29 -51
-100 -33 -100 25 0 61 70 82 100 30z"/>
<path d="M6190 5900 c0 -73 3 -90 15 -90 12 0 15 13 15 58 0 62 14 86 54 93
11 2 21 10 24 17 5 16 -50 16 -66 0 -9 -9 -12 -9 -12 0 0 7 -7 12 -15 12 -12
0 -15 -17 -15 -90z"/>
<path d="M6356 5964 c-53 -54 -19 -154 54 -154 44 0 70 16 86 56 38 90 -71
166 -140 98z m96 -21 c22 -20 24 -66 2 -87 -39 -39 -102 2 -88 58 11 44 53 59
86 29z"/>
<path d="M6963 5966 c-22 -19 -28 -32 -28 -66 0 -34 6 -47 28 -66 46 -39 108
-31 132 17 22 41 18 73 -11 108 -33 39 -80 42 -121 7z m92 -20 c21 -15 25 -67
5 -90 -29 -36 -90 -8 -90 41 0 51 46 78 85 49z"/>
<path d="M7140 5985 c0 -2 17 -38 37 -79 l37 -75 -19 -40 c-10 -23 -15 -44
-12 -47 16 -16 36 12 79 107 65 144 63 139 42 139 -13 -1 -27 -18 -45 -58
l-26 -57 -29 58 c-18 37 -34 57 -46 57 -10 0 -18 -2 -18 -5z"/>
<path d="M7716 5959 c-29 -35 -33 -67 -11 -108 16 -31 33 -41 74 -41 35 0 77
28 62 43 -7 7 -15 6 -25 -2 -23 -19 -69 -9 -82 17 -27 54 18 108 71 84 31 -14
47 5 20 25 -34 24 -80 16 -109 -18z"/>
<path d="M8135 5966 c-35 -35 -35 -97 0 -131 26 -27 80 -34 116 -14 31 16 12
30 -32 23 -25 -4 -44 -2 -54 6 -30 25 -16 35 47 35 61 0 63 1 60 25 -9 73 -88
105 -137 56z m90 -22 c21 -21 13 -28 -35 -29 -41 -1 -50 11 -28 33 17 17 44
15 63 -4z"/>
<path d="M8331 5938 c12 -29 29 -70 37 -91 13 -31 20 -37 40 -35 21 2 31 16
59 83 38 91 39 95 17 95 -13 0 -41 -50 -68 -125 -6 -16 -13 -6 -38 53 -22 53
-35 72 -49 72 -18 0 -18 -2 2 -52z"/>
<path d="M8577 5979 c-11 -6 -25 -26 -33 -45 -26 -62 16 -124 83 -124 16 0 34
5 41 12 9 9 12 9 12 0 0 -7 7 -12 15 -12 12 0 15 17 15 90 0 73 -3 90 -15 90
-8 0 -15 -5 -15 -12 0 -9 -3 -9 -12 0 -15 15 -67 15 -91 1z m93 -51 c13 -25
13 -31 0 -55 -29 -51 -100 -33 -100 25 0 61 70 82 100 30z"/>
<path d="M8770 5900 c0 -73 3 -90 15 -90 12 0 15 13 15 58 0 62 14 86 54 93
11 2 21 10 24 17 5 16 -50 16 -66 0 -9 -9 -12 -9 -12 0 0 7 -7 12 -15 12 -12
0 -15 -17 -15 -90z"/>
<path d="M8920 5898 c0 -81 2 -88 20 -88 18 0 20 7 20 63 0 68 10 87 47 87 13
0 23 6 23 14 0 11 -13 14 -55 13 l-55 -1 0 -88z"/>
<path d="M9078 5980 c-1 -5 -2 -46 0 -90 3 -61 7 -80 18 -80 11 0 14 19 14 90
0 71 -3 90 -14 90 -8 0 -16 -4 -18 -10z"/>
<path d="M9191 5973 c-46 -38 -42 -126 8 -152 26 -15 74 -14 89 1 9 9 12 9 12
0 0 -7 7 -12 15 -12 12 0 15 17 15 90 0 73 -3 90 -15 90 -8 0 -15 -5 -15 -12
0 -9 -3 -9 -12 0 -18 18 -73 15 -97 -5z m99 -45 c13 -25 13 -31 0 -55 -29 -51
-100 -33 -100 25 0 61 70 82 100 30z"/>
<path d="M5070 5505 c0 -113 2 -135 15 -135 13 0 15 22 15 135 0 113 -2 135
-15 135 -13 0 -15 -22 -15 -135z"/>
<path d="M7570 5505 c0 -113 2 -135 15 -135 11 0 15 12 15 48 0 62 18 97 50
97 32 0 50 -35 50 -97 0 -36 4 -48 15 -48 12 0 15 14 15 65 0 57 -3 69 -26 92
-21 21 -32 25 -65 20 l-39 -5 0 49 c0 37 -4 49 -15 49 -13 0 -15 -22 -15 -135z"/>
<path d="M8068 5632 c-24 -3 -27 -8 -33 -57 -4 -29 -4 -58 -1 -64 4 -5 22 -7
41 -4 43 7 65 -9 65 -48 0 -39 -37 -64 -74 -50 -14 6 -26 15 -26 20 0 6 -7 8
-15 5 -21 -8 -19 -20 7 -44 33 -31 83 -26 120 10 26 27 30 36 25 67 -8 46 -37
75 -76 77 -27 1 -31 5 -31 29 0 25 3 27 45 27 32 0 45 4 45 14 0 15 -45 23
-92 18z"/>
<path d="M8370 5505 c0 -128 1 -135 20 -135 18 0 20 7 20 56 0 64 13 94 40 94
35 0 50 -27 50 -91 0 -54 2 -59 21 -59 21 0 21 4 16 66 -6 85 -33 118 -89 111
l-38 -5 0 49 c0 42 -3 49 -20 49 -19 0 -20 -7 -20 -135z"/>
<path d="M4972 5613 c2 -10 10 -18 18 -18 8 0 16 8 18 18 2 12 -3 17 -18 17
-15 0 -20 -5 -18 -17z"/>
<path d="M5260 5615 c0 -8 7 -15 15 -15 12 0 15 -19 15 -115 0 -108 1 -115 20
-115 19 0 20 7 20 130 l0 130 -35 0 c-24 0 -35 -5 -35 -15z"/>
<path d="M5380 5615 c0 -8 7 -15 15 -15 12 0 15 -17 16 -87 1 -49 1 -100 0
-115 -1 -22 3 -28 19 -28 19 0 20 7 20 130 l0 130 -35 0 c-24 0 -35 -5 -35
-15z"/>
<path d="M6670 5500 c0 -123 1 -130 20 -130 18 0 20 8 22 101 l3 102 35 -52
c45 -66 64 -66 110 1 l35 52 3 -102 c2 -94 4 -102 22 -102 19 0 20 7 20 130 0
129 0 130 -23 130 -17 0 -35 -16 -67 -60 -24 -33 -45 -60 -46 -60 -2 0 -22 27
-45 60 -31 44 -48 60 -65 60 -24 0 -24 0 -24 -130z"/>
<path d="M7880 5615 c0 -8 9 -15 20 -15 19 0 20 -7 20 -115 0 -108 1 -115 20
-115 19 0 20 7 20 130 l0 130 -40 0 c-29 0 -40 -4 -40 -15z"/>
<path d="M4845 5590 c-3 -5 -3 -10 1 -10 3 0 -1 -12 -11 -26 -13 -20 -14 -28
-5 -34 7 -4 13 -29 15 -56 2 -27 3 -57 4 -67 2 -29 71 -44 71 -15 0 5 -9 12
-20 15 -17 5 -20 14 -20 64 0 56 1 59 25 59 16 0 25 6 25 15 0 9 -9 15 -25 15
-20 0 -25 5 -25 25 0 25 -23 35 -35 15z"/>
<path d="M8250 5575 c0 -14 -7 -28 -15 -31 -8 -4 -15 -10 -15 -15 0 -5 7 -9
15 -9 12 0 15 -14 15 -62 0 -83 8 -93 63 -89 18 1 19 26 1 26 -25 1 -34 20
-34 71 0 51 1 54 25 54 16 0 25 6 25 15 0 9 -9 15 -25 15 -20 0 -25 5 -25 25
0 16 -6 25 -15 25 -9 0 -15 -9 -15 -25z"/>
<path d="M4410 5477 c0 -94 12 -107 93 -105 l57 2 0 88 c0 72 -3 88 -15 88
-12 0 -15 -13 -15 -56 0 -66 -13 -94 -43 -94 -37 0 -47 19 -47 87 0 49 -3 63
-15 63 -12 0 -15 -15 -15 -73z"/>
<path d="M4620 5458 c0 -72 3 -88 15 -88 12 0 15 13 15 59 0 63 15 91 49 91
30 0 41 -22 41 -87 0 -49 3 -63 15 -63 12 0 15 15 15 73 0 94 -12 107 -93 105
l-57 -2 0 -88z"/>
<path d="M4970 5460 c0 -83 1 -90 20 -90 19 0 20 7 20 90 0 83 -1 90 -20 90
-19 0 -20 -7 -20 -90z"/>
<path d="M5517 5543 c-4 -3 -7 -60 -7 -125 0 -111 1 -118 20 -118 17 0 20 7
20 47 0 37 3 44 12 35 21 -21 77 -14 103 13 55 54 18 155 -58 155 -18 0 -38
-5 -44 -11 -8 -8 -13 -8 -17 0 -8 12 -20 14 -29 4z m132 -57 c19 -40 -2 -79
-44 -84 -34 -4 -55 18 -55 59 0 62 73 80 99 25z"/>
<path d="M5740 5458 c0 -72 3 -88 15 -88 12 0 15 13 15 56 0 64 13 94 39 94
25 0 31 -19 31 -91 0 -46 3 -59 15 -59 12 0 15 14 15 64 0 71 17 99 48 79 13
-7 18 -28 20 -77 2 -50 6 -66 17 -66 24 0 21 142 -3 163 -21 20 -45 21 -73 6
-13 -7 -24 -7 -32 -1 -7 6 -33 10 -59 10 l-48 -1 0 -89z"/>
<path d="M6160 5532 c-15 -12 -24 -33 -27 -62 -4 -38 -1 -49 21 -72 68 -75
181 3 141 98 -22 54 -90 72 -135 36z m92 -29 c36 -33 11 -103 -37 -103 -42 0
-66 57 -41 95 19 29 51 32 78 8z"/>
<path d="M6350 5458 c0 -72 3 -88 15 -88 12 0 15 13 15 59 0 63 15 91 49 91
30 0 41 -22 41 -87 0 -49 3 -63 15 -63 12 0 15 15 15 73 0 94 -12 107 -93 105
l-57 -2 0 -88z"/>
<path d="M7013 5526 c-22 -19 -28 -32 -28 -64 0 -72 65 -114 126 -82 13 7 19
7 19 0 0 -5 7 -10 15 -10 12 0 15 17 15 90 0 73 -3 90 -15 90 -8 0 -15 -5 -15
-10 0 -7 -6 -7 -19 0 -32 17 -68 12 -98 -14z m88 -16 c22 -12 27 -78 7 -98
-32 -32 -88 -1 -88 48 0 49 38 72 81 50z"/>
<path d="M7219 5538 c-2 -22 -2 -61 0 -115 1 -40 5 -53 16 -53 12 0 15 13 15
59 0 63 15 91 50 91 10 0 20 7 24 15 4 11 -2 15 -22 15 -16 0 -33 -5 -39 -11
-8 -8 -13 -8 -17 0 -10 15 -26 14 -27 -1z"/>
<path d="M7386 5519 c-52 -61 -17 -148 59 -149 39 0 81 28 66 43 -8 8 -14 8
-23 -1 -7 -7 -24 -12 -38 -12 -36 0 -50 17 -50 62 0 31 5 41 25 50 19 8 31 8
50 0 31 -14 47 5 20 25 -34 24 -80 16 -109 -18z"/>
<path d="M5118 4140 c-4 -45 5 -60 38 -60 27 0 38 -24 18 -40 -11 -10 -17 -10
-29 0 -22 19 -44 -3 -25 -25 31 -37 100 -5 100 48 0 28 -34 59 -56 50 -8 -3
-14 1 -14 11 0 11 9 16 31 16 24 0 30 4 27 18 -2 12 -15 18 -44 20 l-42 3 -4
-41z"/>
<path d="M5295 4160 c-13 -14 -15 -24 -8 -31 7 -7 14 -5 22 5 13 15 41 11 41
-6 0 -6 -18 -33 -40 -60 -22 -28 -40 -55 -40 -59 0 -5 27 -9 60 -9 45 0 60 3
60 14 0 9 -12 16 -31 18 l-31 3 31 39 c36 45 38 59 11 86 -26 26 -52 25 -75 0z"/>
<path d="M5460 4160 c-15 -15 -20 -33 -20 -70 0 -57 24 -90 65 -90 63 0 90
106 40 155 -29 30 -58 32 -85 5z m70 -77 c0 -31 -5 -45 -16 -50 -37 -14 -60
70 -28 102 25 24 44 1 44 -52z"/>
<path d="M5620 4160 c0 -11 5 -20 10 -20 6 0 10 -30 10 -70 0 -63 2 -70 20
-70 19 0 20 7 20 90 l0 90 -30 0 c-23 0 -30 -4 -30 -20z"/>
<path d="M5852 4164 c-41 -29 -14 -94 40 -94 22 0 33 -19 19 -33 -7 -7 -18 -7
-37 2 -36 16 -59 -3 -30 -25 49 -36 125 -2 112 50 -5 19 -16 28 -46 36 -22 6
-40 17 -40 25 0 17 20 25 41 14 8 -4 22 -3 30 2 12 8 11 12 -5 24 -25 19 -56
19 -84 -1z"/>
<path d="M6007 4173 c-4 -3 -7 -32 -7 -63 0 -70 26 -110 71 -110 50 0 69 30
69 110 0 56 -3 70 -15 70 -11 0 -15 -13 -15 -54 0 -66 -27 -109 -54 -87 -12
10 -16 31 -16 77 0 47 -4 64 -13 64 -8 0 -17 -3 -20 -7z"/>
<path d="M6190 4090 c0 -83 1 -90 20 -90 18 0 20 7 20 57 l0 56 41 -56 c25
-36 47 -57 60 -57 17 0 19 8 19 90 0 83 -2 90 -20 90 -16 0 -19 -8 -22 -57
l-3 -57 -43 57 c-61 82 -72 77 -72 -33z"/>
<path d="M6422 4164 c-25 -17 -29 -56 -8 -73 8 -7 27 -16 42 -20 15 -4 29 -12
32 -19 6 -18 -28 -27 -51 -13 -29 18 -50 -5 -23 -25 49 -36 125 -2 112 50 -5
19 -16 28 -46 36 -22 6 -40 17 -40 25 0 17 20 25 41 14 8 -4 22 -3 30 2 12 8
11 12 -5 24 -25 19 -56 19 -84 -1z"/>
<path d="M6580 4091 l0 -91 55 0 c41 0 55 4 55 14 0 10 -13 16 -37 18 -30 2
-38 7 -38 23 0 15 8 21 33 23 46 5 43 32 -3 32 -50 0 -48 28 3 32 25 2 37 8
37 18 0 11 -14 16 -52 18 l-53 3 0 -90z"/>
<path d="M6730 4160 c0 -13 7 -20 20 -20 18 0 20 -7 20 -70 0 -63 2 -70 20
-70 18 0 20 7 20 69 0 65 2 70 23 73 12 2 22 10 22 18 0 11 -15 16 -62 18 -58
3 -63 1 -63 -18z"/>
<path d="M6997 4173 c-4 -3 -7 -44 -7 -90 l0 -83 50 0 c82 0 120 56 91 133
-13 34 -111 64 -134 40z m101 -78 c4 -42 -14 -65 -50 -65 -15 0 -18 9 -18 56
l0 55 33 -3 c30 -3 32 -6 35 -43z"/>
<path d="M7197 4173 c-4 -3 -7 -44 -7 -90 0 -76 2 -83 20 -83 16 0 20 7 20 35
0 19 4 35 9 35 5 0 21 -16 35 -35 15 -19 36 -35 47 -35 19 0 19 2 -6 34 -23
31 -24 35 -11 61 25 48 -3 85 -64 85 -20 0 -40 -3 -43 -7z m83 -48 c0 -8 -4
-15 -9 -15 -5 0 -16 -3 -25 -6 -12 -4 -16 0 -16 15 0 16 6 21 25 21 16 0 25
-6 25 -15z"/>
<path d="M7385 4170 c-4 -7 -2 -17 4 -23 13 -13 15 -117 3 -117 -5 0 -9 -7 -9
-15 0 -10 11 -15 34 -15 34 0 43 16 22 37 -10 10 -9 52 3 118 2 15 -3 21 -24
23 -14 2 -29 -2 -33 -8z"/>
<path d="M7500 4168 c0 -7 15 -48 33 -90 44 -106 62 -106 105 0 35 85 39 102
19 102 -8 0 -27 -30 -42 -66 l-28 -67 -31 64 c-29 59 -56 87 -56 57z"/>
<path d="M7730 4090 l0 -90 50 0 c38 0 50 4 50 15 0 10 -11 15 -35 15 -31 0
-35 3 -35 25 0 22 4 25 36 25 45 0 42 24 -4 28 -46 5 -43 32 3 32 28 0 35 4
35 20 0 17 -7 20 -50 20 l-50 0 0 -90z"/>
<path d="M4510 3860 c-11 -11 -20 -29 -20 -39 0 -22 35 -51 62 -51 22 0 33
-19 19 -33 -9 -9 -16 -8 -31 1 -10 6 -26 9 -35 6 -14 -6 -14 -8 1 -25 38 -42
120 -10 112 43 -2 17 -14 26 -45 36 -44 14 -56 35 -27 46 9 4 22 2 28 -3 7 -6
17 -6 26 0 13 8 12 12 -4 24 -27 21 -62 19 -86 -5z"/>
<path d="M4670 3807 c0 -84 15 -107 67 -107 48 0 63 26 63 108 0 57 -3 72 -15
72 -12 0 -15 -13 -15 -59 0 -41 -5 -65 -16 -75 -8 -9 -17 -16 -19 -16 -2 0
-11 7 -19 16 -11 10 -16 34 -16 75 0 46 -3 59 -15 59 -12 0 -15 -15 -15 -73z"/>
<path d="M4857 3873 c-4 -3 -7 -44 -7 -90 0 -76 2 -83 20 -83 18 0 20 7 20 57
l0 57 42 -57 c24 -33 49 -57 60 -57 16 0 18 10 18 91 0 81 -2 90 -17 87 -14
-2 -19 -16 -23 -57 l-5 -53 -40 56 c-38 53 -54 64 -68 49z"/>
<path d="M5080 3860 c-11 -11 -20 -27 -20 -35 0 -21 36 -55 59 -55 25 0 37
-18 22 -33 -7 -7 -18 -7 -37 2 -34 15 -52 1 -29 -23 23 -22 78 -21 99 3 29 32
17 64 -31 81 -42 14 -56 34 -30 43 6 2 20 0 31 -5 28 -15 47 9 22 28 -28 20
-63 17 -86 -6z"/>
<path d="M5240 3790 l0 -90 55 0 c42 0 55 3 55 15 0 10 -11 15 -35 15 -31 0
-35 3 -35 25 0 21 5 25 30 25 20 0 30 5 30 15 0 10 -10 15 -30 15 -20 0 -30 5
-30 15 0 10 11 15 35 15 28 0 35 4 35 20 0 18 -7 20 -55 20 l-55 0 0 -90z"/>
<path d="M5397 3873 c-16 -15 -6 -33 18 -33 24 0 25 -2 25 -70 0 -56 3 -70 15
-70 12 0 15 14 15 70 0 68 1 70 25 70 18 0 25 5 25 20 0 18 -7 20 -58 20 -32
0 -62 -3 -65 -7z"/>
<path d="M5660 3790 c0 -73 3 -90 15 -90 10 0 15 11 15 35 0 32 3 35 28 35 16
0 36 8 45 18 39 43 4 92 -65 92 l-38 0 0 -90z m85 40 c7 -11 -35 -31 -47 -23
-5 2 -8 11 -8 19 0 16 45 20 55 4z"/>
<path d="M5849 3851 c-32 -33 -37 -67 -14 -110 39 -76 155 -41 155 46 0 43
-46 93 -85 93 -16 0 -38 -12 -56 -29z m89 -23 c33 -33 0 -105 -42 -92 -27 8
-36 22 -36 55 0 30 17 49 45 49 12 0 26 -5 33 -12z"/>
<path d="M6045 3790 c0 -89 0 -90 25 -90 25 0 25 1 25 90 0 89 0 90 -25 90
-25 0 -25 -1 -25 -90z"/>
<path d="M6157 3873 c-4 -3 -7 -44 -7 -90 0 -76 2 -83 20 -83 16 0 19 8 22 56
l3 57 39 -57 c24 -34 46 -56 57 -56 17 0 19 9 19 91 0 81 -2 90 -17 87 -14 -2
-19 -16 -23 -57 l-5 -53 -40 56 c-38 53 -54 64 -68 49z"/>
<path d="M6357 3873 c-16 -15 -6 -33 18 -33 24 0 25 -2 25 -70 0 -56 3 -70 15
-70 12 0 15 14 15 70 0 68 1 70 25 70 18 0 25 5 25 20 0 18 -7 20 -58 20 -32
0 -62 -3 -65 -7z"/>
<path d="M6786 3872 c-3 -6 -21 -46 -41 -91 -32 -75 -33 -81 -15 -81 11 0 24
9 30 20 15 28 73 27 92 -1 7 -12 21 -20 30 -18 13 3 10 17 -21 89 -34 79 -60
106 -75 82z m28 -100 c-25 -6 -32 2 -22 28 l9 25 14 -25 c12 -21 12 -25 -1
-28z"/>
<path d="M6947 3873 c-4 -3 -7 -44 -7 -90 l0 -83 46 0 c76 0 85 10 80 87 -3
49 -9 70 -22 80 -19 14 -86 18 -97 6z m84 -48 c0 -5 -12 -11 -26 -13 -18 -2
-25 1 -25 13 0 12 7 15 25 13 14 -2 26 -7 26 -13z m6 -61 c7 -18 -12 -34 -39
-34 -13 0 -18 8 -18 25 0 20 5 25 25 25 14 0 28 -7 32 -16z"/>
<path d="M7310 3860 c0 -13 7 -20 20 -20 17 0 19 -8 22 -67 2 -55 6 -68 21
-71 15 -3 17 5 17 67 0 65 2 70 23 73 12 2 22 10 22 18 0 11 -15 16 -62 18
-58 3 -63 1 -63 -18z"/>
<path d="M7506 3859 c-22 -17 -26 -28 -26 -69 0 -38 5 -54 22 -70 51 -47 108
-10 108 70 0 81 -48 113 -104 69z m70 -45 c9 -37 -7 -79 -31 -79 -23 0 -38 47
-25 81 13 33 48 32 56 -2z"/>
<path d="M7660 3790 l0 -90 55 0 c42 0 55 3 55 15 0 10 -11 15 -35 15 -31 0
-35 3 -35 25 0 21 5 25 30 25 20 0 30 5 30 15 0 10 -10 15 -30 15 -20 0 -30 5
-30 15 0 10 11 15 35 15 28 0 35 4 35 20 0 18 -7 20 -55 20 l-55 0 0 -90z"/>
<path d="M7935 3855 c-50 -49 -20 -155 44 -155 42 0 66 33 66 92 0 40 -5 53
-24 69 -31 26 -57 24 -86 -6z m69 -31 c20 -51 -8 -110 -39 -84 -15 12 -21 81
-8 93 12 13 41 7 47 -9z"/>
<path d="M8148 3843 c-63 -155 -60 -143 -39 -143 11 0 23 9 26 20 5 16 15 20
47 20 31 0 41 -4 45 -20 5 -19 43 -29 43 -12 0 4 -15 43 -33 87 -41 96 -64
109 -89 48z m52 -60 c0 -7 -9 -13 -20 -13 -23 0 -24 4 -9 32 9 17 13 18 20 7
5 -8 9 -20 9 -26z"/>
<path d="M8346 3859 c-21 -17 -26 -29 -26 -68 0 -57 26 -91 70 -91 38 0 60 32
60 90 0 33 -6 53 -20 68 -26 28 -50 28 -84 1z m70 -45 c13 -51 -21 -103 -48
-76 -16 16 -15 91 1 102 21 12 40 1 47 -26z"/>
<path d="M6528 3700 c-3 -19 0 -30 8 -30 12 0 24 22 24 46 0 27 -28 14 -32
-16z"/>
<path d="M7126 3704 c-10 -38 10 -55 24 -20 13 36 13 46 -4 46 -8 0 -17 -12
-20 -26z"/>
<path d="M506 3340 c-154 -15 -338 -66 -458 -126 l-48 -24 0 -93 0 -93 94 46
c158 78 303 117 476 127 90 5 111 3 140 -12 l34 -18 -105 -37 c-196 -69 -362
-157 -546 -289 l-93 -66 0 -113 0 -113 58 48 c237 198 506 343 772 418 l91 26
40 -43 c58 -63 153 -208 143 -218 -5 -4 -38 -20 -74 -35 -61 -25 -132 -62
-240 -123 -224 -127 -513 -358 -722 -578 l-68 -71 0 -129 0 -129 47 55 c85
100 276 290 388 387 134 116 281 222 437 314 107 64 277 149 297 149 20 0 44
-161 48 -326 l5 -171 -118 -62 c-352 -185 -709 -525 -987 -938 -52 -77 -88
-122 -99 -123 -16 0 -18 -15 -18 -172 l1 -173 62 -27 c373 -164 761 -169 1139
-17 374 151 683 487 812 882 49 147 66 265 66 442 0 241 -39 412 -139 620
-200 413 -578 704 -1026 788 -103 20 -296 28 -409 17z m700 -289 c118 -58 121
-61 165 -128 235 -353 365 -753 329 -1012 -11 -83 -18 -111 -27 -111 -9 0
-133 101 -212 172 l-74 67 -2 208 c-1 157 -5 226 -18 283 -51 223 -125 377
-249 523 -27 31 -45 57 -41 57 5 0 63 -27 129 -59z m627 -678 c77 -201 105
-452 71 -654 -6 -36 -6 -36 -41 -26 -28 9 -33 14 -28 31 51 176 45 433 -15
641 -22 76 -22 75 -17 75 2 0 16 -30 30 -67z m-482 -525 c130 -120 271 -222
374 -273 50 -24 98 -47 109 -50 14 -4 17 -11 12 -33 -8 -35 -109 -239 -135
-272 l-19 -24 -54 17 c-175 55 -418 207 -659 412 l-91 77 74 54 c72 53 275
174 291 174 5 0 49 -37 98 -82z m-522 -316 c116 -102 232 -192 346 -267 110
-74 296 -172 369 -195 l38 -12 -48 -50 c-57 -58 -163 -139 -253 -193 l-64 -38
-60 11 c-163 31 -397 202 -597 437 -69 82 -71 85 -56 107 18 26 246 258 254
258 2 0 34 -26 71 -58z m-419 -389 c125 -161 408 -407 514 -446 10 -4 16 -10
13 -13 -13 -13 -172 -33 -267 -34 -105 0 -105 0 -180 42 -136 75 -270 242
-243 301 16 34 123 177 133 177 5 0 18 -12 30 -27z m-262 -363 l23 -40 -65 32
c-67 33 -71 48 -11 48 25 0 34 -7 53 -40z"/>
<path d="M12385 3340 c-468 -50 -884 -330 -1110 -745 -217 -398 -229 -877 -34
-1294 129 -276 378 -530 658 -671 289 -145 642 -186 961 -112 l75 17 3 88 c1
48 -1 87 -5 87 -4 0 -30 -7 -58 -15 -45 -14 -212 -45 -242 -45 -10 0 -13 125
-13 590 l0 590 160 0 160 0 0 85 0 85 -160 0 -160 0 0 591 0 590 48 -6 c75
-10 153 -25 206 -41 27 -8 53 -14 58 -14 4 0 8 38 8 85 l0 84 -41 11 c-141 38
-367 55 -514 40z m65 -750 l0 -590 -160 0 c-88 0 -160 3 -160 8 0 4 -7 52 -15
107 -27 192 -83 345 -179 489 -51 76 -155 186 -220 232 l-28 20 48 41 c161
134 385 235 594 268 47 7 93 13 103 14 16 1 17 -33 17 -589z m-813 96 c63 -48
77 -63 141 -147 84 -111 158 -311 177 -476 l7 -63 -346 0 -347 0 7 53 c18 159
86 363 164 497 44 75 120 180 131 180 4 0 33 -20 66 -44z m323 -908 c0 -141
-50 -332 -123 -473 -40 -77 -137 -192 -198 -236 l-28 -20 -31 33 c-93 100
-206 303 -253 453 -22 70 -57 244 -57 282 0 10 65 13 345 13 l345 0 0 -52z
m490 -538 c0 -324 -3 -590 -7 -590 -42 0 -216 34 -283 55 -112 35 -269 113
-353 175 l-68 51 70 65 c179 165 296 441 318 743 l6 91 158 0 159 0 0 -590z"/>
<path d="M5223 2930 c-166 -34 -253 -140 -253 -309 1 -179 186 -404 403 -490
113 -46 131 -79 73 -137 -27 -27 -42 -34 -73 -34 -51 0 -83 -29 -83 -74 0
-114 183 -111 285 6 28 32 39 39 43 28 21 -61 155 -302 210 -380 79 -112 230
-267 323 -333 80 -57 203 -119 282 -143 31 -10 57 -21 57 -24 0 -3 -28 -27
-62 -52 -166 -122 -346 -320 -417 -458 -77 -148 -112 -312 -77 -365 l16 -25
769 0 c870 0 796 -8 793 85 -6 239 -180 507 -483 747 l-92 72 79 26 c161 55
300 147 442 294 143 149 248 306 333 499 33 76 34 77 49 55 71 -107 233 -153
290 -81 44 56 14 111 -69 124 -59 9 -76 20 -97 60 -13 26 -12 30 10 56 13 16
50 39 82 52 153 63 302 199 371 339 35 71 38 82 37 161 -1 145 -58 232 -187
285 l-52 21 -1480 2 c-814 0 -1499 -3 -1522 -7z m230 -317 c9 -93 26 -211 37
-263 10 -52 18 -95 16 -97 -6 -6 -112 41 -161 72 -64 40 -166 149 -194 207
-25 52 -28 135 -7 177 13 24 49 46 106 65 8 2 54 5 101 5 l85 1 17 -167z
m2375 55 c-46 -662 -375 -1241 -811 -1425 -195 -82 -404 -82 -604 0 -140 57
-316 199 -424 342 -219 290 -345 657 -385 1118 l-6 77 1119 0 1118 0 -7 -112z
m406 91 c49 -24 71 -63 71 -127 0 -79 -33 -141 -122 -229 -58 -57 -93 -82
-166 -117 -50 -24 -93 -43 -93 -42 -1 0 9 51 21 112 25 124 45 286 45 371 l0
56 108 -5 c64 -3 119 -10 136 -19z m-1436 -1820 c168 -112 317 -246 405 -364
64 -85 121 -196 132 -257 l7 -38 -626 0 c-524 0 -626 2 -626 14 0 22 28 97 57
151 68 130 190 268 344 387 86 66 216 158 225 158 3 0 40 -23 82 -51z"/>
<path d="M9795 2026 c-99 -46 -152 -138 -143 -251 11 -136 117 -236 250 -235
97 1 178 47 226 129 23 40 27 57 27 126 0 88 -19 137 -72 187 -73 69 -195 88
-288 44z"/>
</g>
</svg>
